<mxfile host="app.diagrams.net" modified="2024-04-06T17:49:22.887Z" agent="Mozilla/5.0 (Windows NT 10.0; Win64; x64) AppleWebKit/537.36 (KHTML, like Gecko) Chrome/123.0.0.0 Safari/537.36 Edg/123.0.0.0" etag="iUhpFSLyELf_j8UUAY2m" version="24.2.2" type="device">
  <diagram name="Page-1" id="GeexOI7dALFEqD_QQJ0B">
    <mxGraphModel dx="2413" dy="2215" grid="0" gridSize="10" guides="1" tooltips="1" connect="1" arrows="1" fold="1" page="0" pageScale="1" pageWidth="850" pageHeight="1100" math="0" shadow="0">
      <root>
        <mxCell id="0" />
        <mxCell id="1" value="Model" parent="0" visible="0" />
        <mxCell id="w13ybTUpAUzulzF94Kuo-1" value="Model" style="shape=folder;fontStyle=1;spacingTop=10;tabWidth=80;tabHeight=20;tabPosition=left;html=1;whiteSpace=wrap;verticalAlign=top;fontSize=25;fontFamily=Times New Roman;fillColor=#dae8fc;strokeColor=#6c8ebf;container=1;recursiveResize=0;fontColor=default;labelBackgroundColor=none;" vertex="1" parent="1">
          <mxGeometry x="-530" y="-280" width="1230" height="1230" as="geometry">
            <mxRectangle x="-790" y="-410" width="150" height="50" as="alternateBounds" />
          </mxGeometry>
        </mxCell>
        <mxCell id="w13ybTUpAUzulzF94Kuo-2" style="edgeStyle=orthogonalEdgeStyle;rounded=0;orthogonalLoop=1;jettySize=auto;html=1;strokeColor=#FF3333;align=center;verticalAlign=middle;fontFamily=Helvetica;fontSize=11;fontColor=default;labelBackgroundColor=none;endArrow=classic;" edge="1" parent="w13ybTUpAUzulzF94Kuo-1" source="w13ybTUpAUzulzF94Kuo-4" target="w13ybTUpAUzulzF94Kuo-17">
          <mxGeometry relative="1" as="geometry">
            <Array as="points">
              <mxPoint x="190" y="700" />
              <mxPoint x="1000" y="700" />
            </Array>
          </mxGeometry>
        </mxCell>
        <mxCell id="w13ybTUpAUzulzF94Kuo-3" style="edgeStyle=orthogonalEdgeStyle;rounded=0;orthogonalLoop=1;jettySize=auto;html=1;strokeColor=#FF3333;align=center;verticalAlign=middle;fontFamily=Helvetica;fontSize=11;fontColor=default;labelBackgroundColor=none;endArrow=classic;" edge="1" parent="w13ybTUpAUzulzF94Kuo-1" source="w13ybTUpAUzulzF94Kuo-4" target="w13ybTUpAUzulzF94Kuo-45">
          <mxGeometry relative="1" as="geometry">
            <Array as="points">
              <mxPoint x="190" y="1040" />
              <mxPoint x="790" y="1040" />
            </Array>
          </mxGeometry>
        </mxCell>
        <mxCell id="w13ybTUpAUzulzF94Kuo-4" value="Prezentare" style="swimlane;fontStyle=1;align=center;verticalAlign=top;childLayout=stackLayout;horizontal=1;startSize=26;horizontalStack=0;resizeParent=1;resizeParentMax=0;resizeLast=0;collapsible=1;marginBottom=0;whiteSpace=wrap;html=1;fillColor=#1ba1e2;strokeColor=#006EAF;fontColor=#ffffff;fontFamily=Helvetica;fontSize=11;labelBackgroundColor=none;" vertex="1" parent="w13ybTUpAUzulzF94Kuo-1">
          <mxGeometry x="110" y="710" width="160" height="320" as="geometry">
            <mxRectangle x="700" y="750" width="90" height="40" as="alternateBounds" />
          </mxGeometry>
        </mxCell>
        <mxCell id="w13ybTUpAUzulzF94Kuo-5" value="- Id : Long" style="text;strokeColor=none;fillColor=none;align=left;verticalAlign=top;spacingLeft=4;spacingRight=4;overflow=hidden;rotatable=0;points=[[0,0.5],[1,0.5]];portConstraint=eastwest;whiteSpace=wrap;html=1;fontFamily=Helvetica;fontSize=11;fontColor=default;labelBackgroundColor=none;" vertex="1" parent="w13ybTUpAUzulzF94Kuo-4">
          <mxGeometry y="26" width="160" height="26" as="geometry" />
        </mxCell>
        <mxCell id="w13ybTUpAUzulzF94Kuo-6" value="- Titlu : String&amp;nbsp;" style="text;strokeColor=none;fillColor=none;align=left;verticalAlign=top;spacingLeft=4;spacingRight=4;overflow=hidden;rotatable=0;points=[[0,0.5],[1,0.5]];portConstraint=eastwest;whiteSpace=wrap;html=1;fontFamily=Helvetica;fontSize=11;fontColor=default;labelBackgroundColor=none;" vertex="1" parent="w13ybTUpAUzulzF94Kuo-4">
          <mxGeometry y="52" width="160" height="26" as="geometry" />
        </mxCell>
        <mxCell id="w13ybTUpAUzulzF94Kuo-7" value="- Autor: String" style="text;strokeColor=none;fillColor=none;align=left;verticalAlign=top;spacingLeft=4;spacingRight=4;overflow=hidden;rotatable=0;points=[[0,0.5],[1,0.5]];portConstraint=eastwest;whiteSpace=wrap;html=1;fontFamily=Helvetica;fontSize=11;fontColor=default;labelBackgroundColor=none;" vertex="1" parent="w13ybTUpAUzulzF94Kuo-4">
          <mxGeometry y="78" width="160" height="26" as="geometry" />
        </mxCell>
        <mxCell id="w13ybTUpAUzulzF94Kuo-8" value="- Descriere : String" style="text;strokeColor=none;fillColor=none;align=left;verticalAlign=top;spacingLeft=4;spacingRight=4;overflow=hidden;rotatable=0;points=[[0,0.5],[1,0.5]];portConstraint=eastwest;whiteSpace=wrap;html=1;fontFamily=Helvetica;fontSize=11;fontColor=default;labelBackgroundColor=none;" vertex="1" parent="w13ybTUpAUzulzF94Kuo-4">
          <mxGeometry y="104" width="160" height="26" as="geometry" />
        </mxCell>
        <mxCell id="w13ybTUpAUzulzF94Kuo-9" value="- Data : String" style="text;strokeColor=none;fillColor=none;align=left;verticalAlign=top;spacingLeft=4;spacingRight=4;overflow=hidden;rotatable=0;points=[[0,0.5],[1,0.5]];portConstraint=eastwest;whiteSpace=wrap;html=1;fontFamily=Helvetica;fontSize=11;fontColor=default;labelBackgroundColor=none;" vertex="1" parent="w13ybTUpAUzulzF94Kuo-4">
          <mxGeometry y="130" width="160" height="26" as="geometry" />
        </mxCell>
        <mxCell id="w13ybTUpAUzulzF94Kuo-10" value="- Ora : String" style="text;strokeColor=none;fillColor=none;align=left;verticalAlign=top;spacingLeft=4;spacingRight=4;overflow=hidden;rotatable=0;points=[[0,0.5],[1,0.5]];portConstraint=eastwest;whiteSpace=wrap;html=1;fontFamily=Helvetica;fontSize=11;fontColor=default;labelBackgroundColor=none;" vertex="1" parent="w13ybTUpAUzulzF94Kuo-4">
          <mxGeometry y="156" width="160" height="26" as="geometry" />
        </mxCell>
        <mxCell id="w13ybTUpAUzulzF94Kuo-11" value="-&amp;nbsp;Sectiune :&amp;nbsp;Sectiune" style="text;strokeColor=none;fillColor=none;align=left;verticalAlign=top;spacingLeft=4;spacingRight=4;overflow=hidden;rotatable=0;points=[[0,0.5],[1,0.5]];portConstraint=eastwest;whiteSpace=wrap;html=1;fontFamily=Helvetica;fontSize=11;fontColor=default;labelBackgroundColor=none;" vertex="1" parent="w13ybTUpAUzulzF94Kuo-4">
          <mxGeometry y="182" width="160" height="26" as="geometry" />
        </mxCell>
        <mxCell id="w13ybTUpAUzulzF94Kuo-12" value="- IdConferinta : int" style="text;strokeColor=none;fillColor=none;align=left;verticalAlign=top;spacingLeft=4;spacingRight=4;overflow=hidden;rotatable=0;points=[[0,0.5],[1,0.5]];portConstraint=eastwest;whiteSpace=wrap;html=1;fontFamily=Helvetica;fontSize=11;fontColor=default;labelBackgroundColor=none;" vertex="1" parent="w13ybTUpAUzulzF94Kuo-4">
          <mxGeometry y="208" width="160" height="26" as="geometry" />
        </mxCell>
        <mxCell id="w13ybTUpAUzulzF94Kuo-13" value="" style="line;strokeWidth=1;fillColor=none;align=left;verticalAlign=middle;spacingTop=-1;spacingLeft=3;spacingRight=3;rotatable=0;labelPosition=right;points=[];portConstraint=eastwest;strokeColor=inherit;fontFamily=Helvetica;fontSize=11;fontColor=default;labelBackgroundColor=none;" vertex="1" parent="w13ybTUpAUzulzF94Kuo-4">
          <mxGeometry y="234" width="160" height="8" as="geometry" />
        </mxCell>
        <mxCell id="w13ybTUpAUzulzF94Kuo-14" value="+ constructor() : obj" style="text;strokeColor=none;fillColor=none;align=left;verticalAlign=top;spacingLeft=4;spacingRight=4;overflow=hidden;rotatable=0;points=[[0,0.5],[1,0.5]];portConstraint=eastwest;whiteSpace=wrap;html=1;fontFamily=Helvetica;fontSize=11;fontColor=default;labelBackgroundColor=none;" vertex="1" parent="w13ybTUpAUzulzF94Kuo-4">
          <mxGeometry y="242" width="160" height="26" as="geometry" />
        </mxCell>
        <mxCell id="w13ybTUpAUzulzF94Kuo-15" value="- getter() : var" style="text;strokeColor=none;fillColor=none;align=left;verticalAlign=top;spacingLeft=4;spacingRight=4;overflow=hidden;rotatable=0;points=[[0,0.5],[1,0.5]];portConstraint=eastwest;whiteSpace=wrap;html=1;fontFamily=Helvetica;fontSize=11;fontColor=default;labelBackgroundColor=none;" vertex="1" parent="w13ybTUpAUzulzF94Kuo-4">
          <mxGeometry y="268" width="160" height="26" as="geometry" />
        </mxCell>
        <mxCell id="w13ybTUpAUzulzF94Kuo-16" value="+ setter(var)&amp;nbsp;&amp;nbsp;" style="text;strokeColor=none;fillColor=none;align=left;verticalAlign=top;spacingLeft=4;spacingRight=4;overflow=hidden;rotatable=0;points=[[0,0.5],[1,0.5]];portConstraint=eastwest;whiteSpace=wrap;html=1;fontFamily=Helvetica;fontSize=11;fontColor=default;labelBackgroundColor=none;" vertex="1" parent="w13ybTUpAUzulzF94Kuo-4">
          <mxGeometry y="294" width="160" height="26" as="geometry" />
        </mxCell>
        <mxCell id="w13ybTUpAUzulzF94Kuo-17" value="Conferință" style="swimlane;fontStyle=1;align=center;verticalAlign=top;childLayout=stackLayout;horizontal=1;startSize=26;horizontalStack=0;resizeParent=1;resizeParentMax=0;resizeLast=0;collapsible=1;marginBottom=0;whiteSpace=wrap;html=1;fillColor=#1ba1e2;strokeColor=#006EAF;fontColor=#ffffff;fontFamily=Helvetica;fontSize=11;labelBackgroundColor=none;" vertex="1" parent="w13ybTUpAUzulzF94Kuo-1">
          <mxGeometry x="920" y="730" width="160" height="268" as="geometry">
            <mxRectangle x="490" y="750" width="90" height="40" as="alternateBounds" />
          </mxGeometry>
        </mxCell>
        <mxCell id="w13ybTUpAUzulzF94Kuo-18" value="- Id : Long" style="text;strokeColor=none;fillColor=none;align=left;verticalAlign=top;spacingLeft=4;spacingRight=4;overflow=hidden;rotatable=0;points=[[0,0.5],[1,0.5]];portConstraint=eastwest;whiteSpace=wrap;html=1;fontFamily=Helvetica;fontSize=11;fontColor=default;labelBackgroundColor=none;" vertex="1" parent="w13ybTUpAUzulzF94Kuo-17">
          <mxGeometry y="26" width="160" height="26" as="geometry" />
        </mxCell>
        <mxCell id="w13ybTUpAUzulzF94Kuo-19" value="- Titlu : String&amp;nbsp;" style="text;strokeColor=none;fillColor=none;align=left;verticalAlign=top;spacingLeft=4;spacingRight=4;overflow=hidden;rotatable=0;points=[[0,0.5],[1,0.5]];portConstraint=eastwest;whiteSpace=wrap;html=1;fontFamily=Helvetica;fontSize=11;fontColor=default;labelBackgroundColor=none;" vertex="1" parent="w13ybTUpAUzulzF94Kuo-17">
          <mxGeometry y="52" width="160" height="26" as="geometry" />
        </mxCell>
        <mxCell id="w13ybTUpAUzulzF94Kuo-20" value="- Locatie : String" style="text;strokeColor=none;fillColor=none;align=left;verticalAlign=top;spacingLeft=4;spacingRight=4;overflow=hidden;rotatable=0;points=[[0,0.5],[1,0.5]];portConstraint=eastwest;whiteSpace=wrap;html=1;fontFamily=Helvetica;fontSize=11;fontColor=default;labelBackgroundColor=none;" vertex="1" parent="w13ybTUpAUzulzF94Kuo-17">
          <mxGeometry y="78" width="160" height="26" as="geometry" />
        </mxCell>
        <mxCell id="w13ybTUpAUzulzF94Kuo-21" value="- Data : String" style="text;strokeColor=none;fillColor=none;align=left;verticalAlign=top;spacingLeft=4;spacingRight=4;overflow=hidden;rotatable=0;points=[[0,0.5],[1,0.5]];portConstraint=eastwest;whiteSpace=wrap;html=1;fontFamily=Helvetica;fontSize=11;fontColor=default;labelBackgroundColor=none;" vertex="1" parent="w13ybTUpAUzulzF94Kuo-17">
          <mxGeometry y="104" width="160" height="26" as="geometry" />
        </mxCell>
        <mxCell id="w13ybTUpAUzulzF94Kuo-22" value="- Participanti : Utilizatori [ ]&amp;nbsp;" style="text;strokeColor=none;fillColor=none;align=left;verticalAlign=top;spacingLeft=4;spacingRight=4;overflow=hidden;rotatable=0;points=[[0,0.5],[1,0.5]];portConstraint=eastwest;whiteSpace=wrap;html=1;fontFamily=Helvetica;fontSize=11;fontColor=default;labelBackgroundColor=none;" vertex="1" parent="w13ybTUpAUzulzF94Kuo-17">
          <mxGeometry y="130" width="160" height="26" as="geometry" />
        </mxCell>
        <mxCell id="w13ybTUpAUzulzF94Kuo-23" value="- Prezentari : Prezentare[ ]" style="text;strokeColor=none;fillColor=none;align=left;verticalAlign=top;spacingLeft=4;spacingRight=4;overflow=hidden;rotatable=0;points=[[0,0.5],[1,0.5]];portConstraint=eastwest;whiteSpace=wrap;html=1;fontFamily=Helvetica;fontSize=11;fontColor=default;labelBackgroundColor=none;" vertex="1" parent="w13ybTUpAUzulzF94Kuo-17">
          <mxGeometry y="156" width="160" height="26" as="geometry" />
        </mxCell>
        <mxCell id="w13ybTUpAUzulzF94Kuo-24" value="" style="line;strokeWidth=1;fillColor=none;align=left;verticalAlign=middle;spacingTop=-1;spacingLeft=3;spacingRight=3;rotatable=0;labelPosition=right;points=[];portConstraint=eastwest;strokeColor=inherit;fontFamily=Helvetica;fontSize=11;fontColor=default;labelBackgroundColor=none;" vertex="1" parent="w13ybTUpAUzulzF94Kuo-17">
          <mxGeometry y="182" width="160" height="8" as="geometry" />
        </mxCell>
        <mxCell id="w13ybTUpAUzulzF94Kuo-25" value="- constructor() : obj" style="text;strokeColor=none;fillColor=none;align=left;verticalAlign=top;spacingLeft=4;spacingRight=4;overflow=hidden;rotatable=0;points=[[0,0.5],[1,0.5]];portConstraint=eastwest;whiteSpace=wrap;html=1;fontFamily=Helvetica;fontSize=11;fontColor=default;labelBackgroundColor=none;" vertex="1" parent="w13ybTUpAUzulzF94Kuo-17">
          <mxGeometry y="190" width="160" height="26" as="geometry" />
        </mxCell>
        <mxCell id="w13ybTUpAUzulzF94Kuo-26" value="+ setter(var)&amp;nbsp;&amp;nbsp;" style="text;strokeColor=none;fillColor=none;align=left;verticalAlign=top;spacingLeft=4;spacingRight=4;overflow=hidden;rotatable=0;points=[[0,0.5],[1,0.5]];portConstraint=eastwest;whiteSpace=wrap;html=1;fontFamily=Helvetica;fontSize=11;fontColor=default;labelBackgroundColor=none;" vertex="1" parent="w13ybTUpAUzulzF94Kuo-17">
          <mxGeometry y="216" width="160" height="26" as="geometry" />
        </mxCell>
        <mxCell id="w13ybTUpAUzulzF94Kuo-27" value="+ getter() : var" style="text;strokeColor=none;fillColor=none;align=left;verticalAlign=top;spacingLeft=4;spacingRight=4;overflow=hidden;rotatable=0;points=[[0,0.5],[1,0.5]];portConstraint=eastwest;whiteSpace=wrap;html=1;fontFamily=Helvetica;fontSize=11;fontColor=default;labelBackgroundColor=none;" vertex="1" parent="w13ybTUpAUzulzF94Kuo-17">
          <mxGeometry y="242" width="160" height="26" as="geometry" />
        </mxCell>
        <mxCell id="w13ybTUpAUzulzF94Kuo-28" value="Utilizator&lt;span style=&quot;white-space: pre;&quot;&gt;&#x9;&lt;/span&gt;&lt;div&gt;&lt;br&gt;&lt;/div&gt;" style="swimlane;fontStyle=1;align=center;verticalAlign=top;childLayout=stackLayout;horizontal=1;startSize=26;horizontalStack=0;resizeParent=1;resizeParentMax=0;resizeLast=0;collapsible=1;marginBottom=0;whiteSpace=wrap;html=1;fillColor=#1ba1e2;strokeColor=#006EAF;fontColor=#ffffff;fontFamily=Helvetica;fontSize=11;labelBackgroundColor=none;" vertex="1" parent="w13ybTUpAUzulzF94Kuo-1">
          <mxGeometry x="370" y="710" width="160" height="268" as="geometry">
            <mxRectangle x="320" y="770" width="90" height="40" as="alternateBounds" />
          </mxGeometry>
        </mxCell>
        <mxCell id="w13ybTUpAUzulzF94Kuo-29" value="- Id : Long" style="text;strokeColor=none;fillColor=none;align=left;verticalAlign=top;spacingLeft=4;spacingRight=4;overflow=hidden;rotatable=0;points=[[0,0.5],[1,0.5]];portConstraint=eastwest;whiteSpace=wrap;html=1;fontFamily=Helvetica;fontSize=11;fontColor=default;labelBackgroundColor=none;" vertex="1" parent="w13ybTUpAUzulzF94Kuo-28">
          <mxGeometry y="26" width="160" height="26" as="geometry" />
        </mxCell>
        <mxCell id="w13ybTUpAUzulzF94Kuo-30" value="- Nume : String&amp;nbsp;" style="text;strokeColor=none;fillColor=none;align=left;verticalAlign=top;spacingLeft=4;spacingRight=4;overflow=hidden;rotatable=0;points=[[0,0.5],[1,0.5]];portConstraint=eastwest;whiteSpace=wrap;html=1;fontFamily=Helvetica;fontSize=11;fontColor=default;labelBackgroundColor=none;" vertex="1" parent="w13ybTUpAUzulzF94Kuo-28">
          <mxGeometry y="52" width="160" height="26" as="geometry" />
        </mxCell>
        <mxCell id="w13ybTUpAUzulzF94Kuo-31" value="- Email : String" style="text;strokeColor=none;fillColor=none;align=left;verticalAlign=top;spacingLeft=4;spacingRight=4;overflow=hidden;rotatable=0;points=[[0,0.5],[1,0.5]];portConstraint=eastwest;whiteSpace=wrap;html=1;fontFamily=Helvetica;fontSize=11;fontColor=default;labelBackgroundColor=none;" vertex="1" parent="w13ybTUpAUzulzF94Kuo-28">
          <mxGeometry y="78" width="160" height="26" as="geometry" />
        </mxCell>
        <mxCell id="w13ybTUpAUzulzF94Kuo-32" value="- Parola : String" style="text;strokeColor=none;fillColor=none;align=left;verticalAlign=top;spacingLeft=4;spacingRight=4;overflow=hidden;rotatable=0;points=[[0,0.5],[1,0.5]];portConstraint=eastwest;whiteSpace=wrap;html=1;fontFamily=Helvetica;fontSize=11;fontColor=default;labelBackgroundColor=none;" vertex="1" parent="w13ybTUpAUzulzF94Kuo-28">
          <mxGeometry y="104" width="160" height="26" as="geometry" />
        </mxCell>
        <mxCell id="w13ybTUpAUzulzF94Kuo-33" value="- Type : UserType" style="text;strokeColor=none;fillColor=none;align=left;verticalAlign=top;spacingLeft=4;spacingRight=4;overflow=hidden;rotatable=0;points=[[0,0.5],[1,0.5]];portConstraint=eastwest;whiteSpace=wrap;html=1;fontFamily=Helvetica;fontSize=11;fontColor=default;labelBackgroundColor=none;" vertex="1" parent="w13ybTUpAUzulzF94Kuo-28">
          <mxGeometry y="130" width="160" height="26" as="geometry" />
        </mxCell>
        <mxCell id="w13ybTUpAUzulzF94Kuo-34" value="- Telefon : String" style="text;strokeColor=none;fillColor=none;align=left;verticalAlign=top;spacingLeft=4;spacingRight=4;overflow=hidden;rotatable=0;points=[[0,0.5],[1,0.5]];portConstraint=eastwest;whiteSpace=wrap;html=1;fontFamily=Helvetica;fontSize=11;fontColor=default;labelBackgroundColor=none;" vertex="1" parent="w13ybTUpAUzulzF94Kuo-28">
          <mxGeometry y="156" width="160" height="26" as="geometry" />
        </mxCell>
        <mxCell id="w13ybTUpAUzulzF94Kuo-35" value="" style="line;strokeWidth=1;fillColor=none;align=left;verticalAlign=middle;spacingTop=-1;spacingLeft=3;spacingRight=3;rotatable=0;labelPosition=right;points=[];portConstraint=eastwest;strokeColor=inherit;fontFamily=Helvetica;fontSize=11;fontColor=default;labelBackgroundColor=none;" vertex="1" parent="w13ybTUpAUzulzF94Kuo-28">
          <mxGeometry y="182" width="160" height="8" as="geometry" />
        </mxCell>
        <mxCell id="w13ybTUpAUzulzF94Kuo-36" value="+ getter() : var" style="text;strokeColor=none;fillColor=none;align=left;verticalAlign=top;spacingLeft=4;spacingRight=4;overflow=hidden;rotatable=0;points=[[0,0.5],[1,0.5]];portConstraint=eastwest;whiteSpace=wrap;html=1;fontFamily=Helvetica;fontSize=11;fontColor=default;labelBackgroundColor=none;" vertex="1" parent="w13ybTUpAUzulzF94Kuo-28">
          <mxGeometry y="190" width="160" height="26" as="geometry" />
        </mxCell>
        <mxCell id="w13ybTUpAUzulzF94Kuo-37" value="+ setter(var)&amp;nbsp;&amp;nbsp;" style="text;strokeColor=none;fillColor=none;align=left;verticalAlign=top;spacingLeft=4;spacingRight=4;overflow=hidden;rotatable=0;points=[[0,0.5],[1,0.5]];portConstraint=eastwest;whiteSpace=wrap;html=1;fontFamily=Helvetica;fontSize=11;fontColor=default;labelBackgroundColor=none;" vertex="1" parent="w13ybTUpAUzulzF94Kuo-28">
          <mxGeometry y="216" width="160" height="26" as="geometry" />
        </mxCell>
        <mxCell id="w13ybTUpAUzulzF94Kuo-38" value="+ constructor() : obj" style="text;strokeColor=none;fillColor=none;align=left;verticalAlign=top;spacingLeft=4;spacingRight=4;overflow=hidden;rotatable=0;points=[[0,0.5],[1,0.5]];portConstraint=eastwest;whiteSpace=wrap;html=1;fontFamily=Helvetica;fontSize=11;fontColor=default;labelBackgroundColor=none;" vertex="1" parent="w13ybTUpAUzulzF94Kuo-28">
          <mxGeometry y="242" width="160" height="26" as="geometry" />
        </mxCell>
        <mxCell id="w13ybTUpAUzulzF94Kuo-39" style="edgeStyle=none;rounded=0;orthogonalLoop=1;jettySize=auto;html=1;strokeColor=default;align=center;verticalAlign=middle;fontFamily=Helvetica;fontSize=11;fontColor=default;labelBackgroundColor=none;endArrow=classic;" edge="1" parent="w13ybTUpAUzulzF94Kuo-1" source="w13ybTUpAUzulzF94Kuo-40" target="w13ybTUpAUzulzF94Kuo-28">
          <mxGeometry relative="1" as="geometry" />
        </mxCell>
        <mxCell id="w13ybTUpAUzulzF94Kuo-40" value="&amp;lt;&amp;lt;Enum&amp;gt;&amp;gt;&lt;br&gt;UserType&lt;span style=&quot;white-space: pre;&quot;&gt;&#x9;&lt;/span&gt;&lt;div&gt;&lt;br&gt;&lt;/div&gt;" style="swimlane;fontStyle=1;align=center;verticalAlign=top;childLayout=stackLayout;horizontal=1;startSize=40;horizontalStack=0;resizeParent=1;resizeParentMax=0;resizeLast=0;collapsible=1;marginBottom=0;whiteSpace=wrap;html=1;fillColor=#1ba1e2;strokeColor=#006EAF;fontColor=#ffffff;fontFamily=Helvetica;fontSize=11;labelBackgroundColor=none;" vertex="1" parent="w13ybTUpAUzulzF94Kuo-1">
          <mxGeometry x="360" y="1090" width="160" height="118" as="geometry">
            <mxRectangle x="1030" y="760" width="90" height="40" as="alternateBounds" />
          </mxGeometry>
        </mxCell>
        <mxCell id="w13ybTUpAUzulzF94Kuo-41" value="Participant" style="text;strokeColor=none;fillColor=none;align=left;verticalAlign=top;spacingLeft=4;spacingRight=4;overflow=hidden;rotatable=0;points=[[0,0.5],[1,0.5]];portConstraint=eastwest;whiteSpace=wrap;html=1;fontFamily=Helvetica;fontSize=11;fontColor=default;labelBackgroundColor=none;" vertex="1" parent="w13ybTUpAUzulzF94Kuo-40">
          <mxGeometry y="40" width="160" height="26" as="geometry" />
        </mxCell>
        <mxCell id="w13ybTUpAUzulzF94Kuo-42" value="Organizator" style="text;strokeColor=none;fillColor=none;align=left;verticalAlign=top;spacingLeft=4;spacingRight=4;overflow=hidden;rotatable=0;points=[[0,0.5],[1,0.5]];portConstraint=eastwest;whiteSpace=wrap;html=1;fontFamily=Helvetica;fontSize=11;fontColor=default;labelBackgroundColor=none;" vertex="1" parent="w13ybTUpAUzulzF94Kuo-40">
          <mxGeometry y="66" width="160" height="26" as="geometry" />
        </mxCell>
        <mxCell id="w13ybTUpAUzulzF94Kuo-43" value="Administrator" style="text;strokeColor=none;fillColor=none;align=left;verticalAlign=top;spacingLeft=4;spacingRight=4;overflow=hidden;rotatable=0;points=[[0,0.5],[1,0.5]];portConstraint=eastwest;whiteSpace=wrap;html=1;fontFamily=Helvetica;fontSize=11;fontColor=default;labelBackgroundColor=none;" vertex="1" parent="w13ybTUpAUzulzF94Kuo-40">
          <mxGeometry y="92" width="160" height="26" as="geometry" />
        </mxCell>
        <mxCell id="w13ybTUpAUzulzF94Kuo-44" style="edgeStyle=none;rounded=0;orthogonalLoop=1;jettySize=auto;html=1;strokeColor=#FF3333;align=center;verticalAlign=middle;fontFamily=Helvetica;fontSize=11;fontColor=default;labelBackgroundColor=none;endArrow=classic;" edge="1" parent="w13ybTUpAUzulzF94Kuo-1" source="w13ybTUpAUzulzF94Kuo-45" target="w13ybTUpAUzulzF94Kuo-17">
          <mxGeometry relative="1" as="geometry" />
        </mxCell>
        <mxCell id="w13ybTUpAUzulzF94Kuo-45" value="&lt;div&gt;Participant&lt;br&gt;&lt;/div&gt;" style="swimlane;fontStyle=1;align=center;verticalAlign=top;childLayout=stackLayout;horizontal=1;startSize=26;horizontalStack=0;resizeParent=1;resizeParentMax=0;resizeLast=0;collapsible=1;marginBottom=0;whiteSpace=wrap;html=1;fillColor=#1ba1e2;strokeColor=#006EAF;fontColor=#ffffff;fontFamily=Helvetica;fontSize=11;labelBackgroundColor=none;" vertex="1" parent="w13ybTUpAUzulzF94Kuo-1">
          <mxGeometry x="710" y="760" width="160" height="242" as="geometry">
            <mxRectangle x="130" y="780" width="90" height="40" as="alternateBounds" />
          </mxGeometry>
        </mxCell>
        <mxCell id="w13ybTUpAUzulzF94Kuo-46" value="- Id : Long" style="text;strokeColor=none;fillColor=none;align=left;verticalAlign=top;spacingLeft=4;spacingRight=4;overflow=hidden;rotatable=0;points=[[0,0.5],[1,0.5]];portConstraint=eastwest;whiteSpace=wrap;html=1;fontFamily=Helvetica;fontSize=11;fontColor=default;labelBackgroundColor=none;" vertex="1" parent="w13ybTUpAUzulzF94Kuo-45">
          <mxGeometry y="26" width="160" height="26" as="geometry" />
        </mxCell>
        <mxCell id="w13ybTUpAUzulzF94Kuo-47" value="- Nume : String&amp;nbsp;" style="text;strokeColor=none;fillColor=none;align=left;verticalAlign=top;spacingLeft=4;spacingRight=4;overflow=hidden;rotatable=0;points=[[0,0.5],[1,0.5]];portConstraint=eastwest;whiteSpace=wrap;html=1;fontFamily=Helvetica;fontSize=11;fontColor=default;labelBackgroundColor=none;" vertex="1" parent="w13ybTUpAUzulzF94Kuo-45">
          <mxGeometry y="52" width="160" height="26" as="geometry" />
        </mxCell>
        <mxCell id="w13ybTUpAUzulzF94Kuo-48" value="- Email : String" style="text;strokeColor=none;fillColor=none;align=left;verticalAlign=top;spacingLeft=4;spacingRight=4;overflow=hidden;rotatable=0;points=[[0,0.5],[1,0.5]];portConstraint=eastwest;whiteSpace=wrap;html=1;fontFamily=Helvetica;fontSize=11;fontColor=default;labelBackgroundColor=none;" vertex="1" parent="w13ybTUpAUzulzF94Kuo-45">
          <mxGeometry y="78" width="160" height="26" as="geometry" />
        </mxCell>
        <mxCell id="w13ybTUpAUzulzF94Kuo-49" value="- Telefon : String" style="text;strokeColor=none;fillColor=none;align=left;verticalAlign=top;spacingLeft=4;spacingRight=4;overflow=hidden;rotatable=0;points=[[0,0.5],[1,0.5]];portConstraint=eastwest;whiteSpace=wrap;html=1;fontFamily=Helvetica;fontSize=11;fontColor=default;labelBackgroundColor=none;" vertex="1" parent="w13ybTUpAUzulzF94Kuo-45">
          <mxGeometry y="104" width="160" height="26" as="geometry" />
        </mxCell>
        <mxCell id="w13ybTUpAUzulzF94Kuo-50" value="- IdPrezentare : int" style="text;strokeColor=none;fillColor=none;align=left;verticalAlign=top;spacingLeft=4;spacingRight=4;overflow=hidden;rotatable=0;points=[[0,0.5],[1,0.5]];portConstraint=eastwest;whiteSpace=wrap;html=1;fontFamily=Helvetica;fontSize=11;fontColor=default;labelBackgroundColor=none;" vertex="1" parent="w13ybTUpAUzulzF94Kuo-45">
          <mxGeometry y="130" width="160" height="26" as="geometry" />
        </mxCell>
        <mxCell id="w13ybTUpAUzulzF94Kuo-51" value="" style="line;strokeWidth=1;fillColor=none;align=left;verticalAlign=middle;spacingTop=-1;spacingLeft=3;spacingRight=3;rotatable=0;labelPosition=right;points=[];portConstraint=eastwest;strokeColor=inherit;fontFamily=Helvetica;fontSize=11;fontColor=default;labelBackgroundColor=none;" vertex="1" parent="w13ybTUpAUzulzF94Kuo-45">
          <mxGeometry y="156" width="160" height="8" as="geometry" />
        </mxCell>
        <mxCell id="w13ybTUpAUzulzF94Kuo-52" value="+ getter() : var" style="text;strokeColor=none;fillColor=none;align=left;verticalAlign=top;spacingLeft=4;spacingRight=4;overflow=hidden;rotatable=0;points=[[0,0.5],[1,0.5]];portConstraint=eastwest;whiteSpace=wrap;html=1;fontFamily=Helvetica;fontSize=11;fontColor=default;labelBackgroundColor=none;" vertex="1" parent="w13ybTUpAUzulzF94Kuo-45">
          <mxGeometry y="164" width="160" height="26" as="geometry" />
        </mxCell>
        <mxCell id="w13ybTUpAUzulzF94Kuo-53" value="+ setter(var)&amp;nbsp;&amp;nbsp;" style="text;strokeColor=none;fillColor=none;align=left;verticalAlign=top;spacingLeft=4;spacingRight=4;overflow=hidden;rotatable=0;points=[[0,0.5],[1,0.5]];portConstraint=eastwest;whiteSpace=wrap;html=1;fontFamily=Helvetica;fontSize=11;fontColor=default;labelBackgroundColor=none;" vertex="1" parent="w13ybTUpAUzulzF94Kuo-45">
          <mxGeometry y="190" width="160" height="26" as="geometry" />
        </mxCell>
        <mxCell id="w13ybTUpAUzulzF94Kuo-54" value="+ constructor() : obj" style="text;strokeColor=none;fillColor=none;align=left;verticalAlign=top;spacingLeft=4;spacingRight=4;overflow=hidden;rotatable=0;points=[[0,0.5],[1,0.5]];portConstraint=eastwest;whiteSpace=wrap;html=1;fontFamily=Helvetica;fontSize=11;fontColor=default;labelBackgroundColor=none;" vertex="1" parent="w13ybTUpAUzulzF94Kuo-45">
          <mxGeometry y="216" width="160" height="26" as="geometry" />
        </mxCell>
        <mxCell id="w13ybTUpAUzulzF94Kuo-55" style="edgeStyle=none;rounded=0;orthogonalLoop=1;jettySize=auto;html=1;strokeColor=default;align=center;verticalAlign=middle;fontFamily=Helvetica;fontSize=11;fontColor=default;labelBackgroundColor=none;endArrow=classic;" edge="1" parent="w13ybTUpAUzulzF94Kuo-1" source="w13ybTUpAUzulzF94Kuo-56" target="w13ybTUpAUzulzF94Kuo-4">
          <mxGeometry relative="1" as="geometry" />
        </mxCell>
        <mxCell id="w13ybTUpAUzulzF94Kuo-56" value="&amp;lt;&amp;lt;Enum&amp;gt;&amp;gt;&lt;br&gt;SECTIUNE&lt;span style=&quot;white-space: pre;&quot;&gt;&#x9;&lt;/span&gt;&lt;div&gt;&lt;br&gt;&lt;/div&gt;" style="swimlane;fontStyle=1;align=center;verticalAlign=top;childLayout=stackLayout;horizontal=1;startSize=40;horizontalStack=0;resizeParent=1;resizeParentMax=0;resizeLast=0;collapsible=1;marginBottom=0;whiteSpace=wrap;html=1;fillColor=#1ba1e2;strokeColor=#006EAF;fontColor=#ffffff;fontFamily=Helvetica;fontSize=11;labelBackgroundColor=none;" vertex="1" parent="w13ybTUpAUzulzF94Kuo-1">
          <mxGeometry x="50" y="1050" width="160" height="170" as="geometry">
            <mxRectangle x="860" y="750" width="90" height="40" as="alternateBounds" />
          </mxGeometry>
        </mxCell>
        <mxCell id="w13ybTUpAUzulzF94Kuo-57" value="STIINTE&lt;span style=&quot;white-space: pre;&quot;&gt;&#x9;&lt;/span&gt;" style="text;strokeColor=none;fillColor=none;align=left;verticalAlign=top;spacingLeft=4;spacingRight=4;overflow=hidden;rotatable=0;points=[[0,0.5],[1,0.5]];portConstraint=eastwest;whiteSpace=wrap;html=1;fontFamily=Helvetica;fontSize=11;fontColor=default;labelBackgroundColor=none;" vertex="1" parent="w13ybTUpAUzulzF94Kuo-56">
          <mxGeometry y="40" width="160" height="26" as="geometry" />
        </mxCell>
        <mxCell id="w13ybTUpAUzulzF94Kuo-58" value="TEHNOLOGIE" style="text;strokeColor=none;fillColor=none;align=left;verticalAlign=top;spacingLeft=4;spacingRight=4;overflow=hidden;rotatable=0;points=[[0,0.5],[1,0.5]];portConstraint=eastwest;whiteSpace=wrap;html=1;fontFamily=Helvetica;fontSize=11;fontColor=default;labelBackgroundColor=none;" vertex="1" parent="w13ybTUpAUzulzF94Kuo-56">
          <mxGeometry y="66" width="160" height="26" as="geometry" />
        </mxCell>
        <mxCell id="w13ybTUpAUzulzF94Kuo-59" value="MEDICINA" style="text;strokeColor=none;fillColor=none;align=left;verticalAlign=top;spacingLeft=4;spacingRight=4;overflow=hidden;rotatable=0;points=[[0,0.5],[1,0.5]];portConstraint=eastwest;whiteSpace=wrap;html=1;fontFamily=Helvetica;fontSize=11;fontColor=default;labelBackgroundColor=none;" vertex="1" parent="w13ybTUpAUzulzF94Kuo-56">
          <mxGeometry y="92" width="160" height="26" as="geometry" />
        </mxCell>
        <mxCell id="w13ybTUpAUzulzF94Kuo-60" value="ARTA&lt;span style=&quot;white-space: pre;&quot;&gt;&#x9;&lt;/span&gt;" style="text;strokeColor=none;fillColor=none;align=left;verticalAlign=top;spacingLeft=4;spacingRight=4;overflow=hidden;rotatable=0;points=[[0,0.5],[1,0.5]];portConstraint=eastwest;whiteSpace=wrap;html=1;fontFamily=Helvetica;fontSize=11;fontColor=default;labelBackgroundColor=none;" vertex="1" parent="w13ybTUpAUzulzF94Kuo-56">
          <mxGeometry y="118" width="160" height="26" as="geometry" />
        </mxCell>
        <mxCell id="w13ybTUpAUzulzF94Kuo-61" value="SPORT" style="text;strokeColor=none;fillColor=none;align=left;verticalAlign=top;spacingLeft=4;spacingRight=4;overflow=hidden;rotatable=0;points=[[0,0.5],[1,0.5]];portConstraint=eastwest;whiteSpace=wrap;html=1;fontFamily=Helvetica;fontSize=11;fontColor=default;labelBackgroundColor=none;" vertex="1" parent="w13ybTUpAUzulzF94Kuo-56">
          <mxGeometry y="144" width="160" height="26" as="geometry" />
        </mxCell>
        <mxCell id="w13ybTUpAUzulzF94Kuo-62" value="Repository" style="shape=folder;fontStyle=1;spacingTop=10;tabWidth=70;tabHeight=20;tabPosition=left;html=1;whiteSpace=wrap;verticalAlign=top;fontSize=24;fontFamily=Times New Roman;fillColor=#b1ddf0;strokeColor=#10739e;collapsible=1;container=1;recursiveResize=0;fontColor=default;labelBackgroundColor=none;" vertex="1" parent="1">
          <mxGeometry x="-480" y="-250" width="1070" height="662" as="geometry">
            <mxRectangle x="-550" y="-260" width="150" height="50" as="alternateBounds" />
          </mxGeometry>
        </mxCell>
        <mxCell id="w13ybTUpAUzulzF94Kuo-63" value="Conferinta&lt;span style=&quot;&quot;&gt;Repository&lt;/span&gt;" style="swimlane;fontStyle=1;align=center;verticalAlign=top;childLayout=stackLayout;horizontal=1;startSize=26;horizontalStack=0;resizeParent=1;resizeParentMax=0;resizeLast=0;collapsible=1;marginBottom=0;whiteSpace=wrap;html=1;fillColor=#1ba1e2;strokeColor=#006EAF;fontColor=#ffffff;fontFamily=Helvetica;fontSize=11;labelBackgroundColor=none;" vertex="1" parent="w13ybTUpAUzulzF94Kuo-62">
          <mxGeometry x="740" y="30" width="250" height="252.00446428571428" as="geometry">
            <mxRectangle x="580" y="130" width="150" height="93.75" as="alternateBounds" />
          </mxGeometry>
        </mxCell>
        <mxCell id="w13ybTUpAUzulzF94Kuo-64" value="+ Repository : Repository" style="text;strokeColor=none;fillColor=none;align=left;verticalAlign=top;spacingLeft=4;spacingRight=4;overflow=hidden;rotatable=0;points=[[0,0.5],[1,0.5]];portConstraint=eastwest;whiteSpace=wrap;html=1;fontFamily=Helvetica;fontSize=11;fontColor=default;labelBackgroundColor=none;" vertex="1" parent="w13ybTUpAUzulzF94Kuo-63">
          <mxGeometry y="26" width="250" height="30" as="geometry" />
        </mxCell>
        <mxCell id="w13ybTUpAUzulzF94Kuo-65" value="" style="line;strokeWidth=1;fillColor=none;align=left;verticalAlign=middle;spacingTop=-1;spacingLeft=3;spacingRight=3;rotatable=0;labelPosition=right;points=[];portConstraint=eastwest;strokeColor=inherit;fontFamily=Helvetica;fontSize=11;fontColor=default;labelBackgroundColor=none;" vertex="1" parent="w13ybTUpAUzulzF94Kuo-63">
          <mxGeometry y="56" width="250" height="16.00446428571429" as="geometry" />
        </mxCell>
        <mxCell id="w13ybTUpAUzulzF94Kuo-66" value="+ConferintaTable()" style="text;strokeColor=none;fillColor=none;align=left;verticalAlign=top;spacingLeft=4;spacingRight=4;overflow=hidden;rotatable=0;points=[[0,0.5],[1,0.5]];portConstraint=eastwest;whiteSpace=wrap;html=1;fontFamily=Helvetica;fontSize=11;fontColor=default;labelBackgroundColor=none;" vertex="1" parent="w13ybTUpAUzulzF94Kuo-63">
          <mxGeometry y="72.00446428571429" width="250" height="30" as="geometry" />
        </mxCell>
        <mxCell id="w13ybTUpAUzulzF94Kuo-67" value="-rowToConferinta(DataRow row)" style="text;strokeColor=none;fillColor=none;align=left;verticalAlign=top;spacingLeft=4;spacingRight=4;overflow=hidden;rotatable=0;points=[[0,0.5],[1,0.5]];portConstraint=eastwest;whiteSpace=wrap;html=1;fontFamily=Helvetica;fontSize=11;fontColor=default;labelBackgroundColor=none;" vertex="1" parent="w13ybTUpAUzulzF94Kuo-63">
          <mxGeometry y="102.00446428571429" width="250" height="30" as="geometry" />
        </mxCell>
        <mxCell id="w13ybTUpAUzulzF94Kuo-68" value="+AddConferinta(Conferinta conferinta)" style="text;strokeColor=none;fillColor=none;align=left;verticalAlign=top;spacingLeft=4;spacingRight=4;overflow=hidden;rotatable=0;points=[[0,0.5],[1,0.5]];portConstraint=eastwest;whiteSpace=wrap;html=1;fontFamily=Helvetica;fontSize=11;fontColor=default;labelBackgroundColor=none;" vertex="1" parent="w13ybTUpAUzulzF94Kuo-63">
          <mxGeometry y="132.00446428571428" width="250" height="30" as="geometry" />
        </mxCell>
        <mxCell id="w13ybTUpAUzulzF94Kuo-69" value="+GetConferinte()" style="text;strokeColor=none;fillColor=none;align=left;verticalAlign=top;spacingLeft=4;spacingRight=4;overflow=hidden;rotatable=0;points=[[0,0.5],[1,0.5]];portConstraint=eastwest;whiteSpace=wrap;html=1;fontFamily=Helvetica;fontSize=11;fontColor=default;labelBackgroundColor=none;" vertex="1" parent="w13ybTUpAUzulzF94Kuo-63">
          <mxGeometry y="162.00446428571428" width="250" height="30" as="geometry" />
        </mxCell>
        <mxCell id="w13ybTUpAUzulzF94Kuo-70" value="+UpdateConferinta(Conferinta conferinta)" style="text;strokeColor=none;fillColor=none;align=left;verticalAlign=top;spacingLeft=4;spacingRight=4;overflow=hidden;rotatable=0;points=[[0,0.5],[1,0.5]];portConstraint=eastwest;whiteSpace=wrap;html=1;fontFamily=Helvetica;fontSize=11;fontColor=default;labelBackgroundColor=none;" vertex="1" parent="w13ybTUpAUzulzF94Kuo-63">
          <mxGeometry y="192.00446428571428" width="250" height="30" as="geometry" />
        </mxCell>
        <mxCell id="w13ybTUpAUzulzF94Kuo-71" value="+DeleteConferinta(int id)" style="text;strokeColor=none;fillColor=none;align=left;verticalAlign=top;spacingLeft=4;spacingRight=4;overflow=hidden;rotatable=0;points=[[0,0.5],[1,0.5]];portConstraint=eastwest;whiteSpace=wrap;html=1;fontFamily=Helvetica;fontSize=11;fontColor=default;labelBackgroundColor=none;" vertex="1" parent="w13ybTUpAUzulzF94Kuo-63">
          <mxGeometry y="222.00446428571428" width="250" height="30" as="geometry" />
        </mxCell>
        <mxCell id="w13ybTUpAUzulzF94Kuo-72" value="PrezentareRepository" style="swimlane;fontStyle=1;align=center;verticalAlign=top;childLayout=stackLayout;horizontal=1;startSize=26;horizontalStack=0;resizeParent=1;resizeParentMax=0;resizeLast=0;collapsible=1;marginBottom=0;whiteSpace=wrap;html=1;fillColor=#1ba1e2;strokeColor=#006EAF;fontColor=#ffffff;fontFamily=Helvetica;fontSize=11;labelBackgroundColor=none;" vertex="1" parent="w13ybTUpAUzulzF94Kuo-62">
          <mxGeometry x="10" y="330" width="271" height="282.0044642857143" as="geometry">
            <mxRectangle x="10" y="330" width="150" height="93.75" as="alternateBounds" />
          </mxGeometry>
        </mxCell>
        <mxCell id="w13ybTUpAUzulzF94Kuo-73" value="+ Repository : Repository" style="text;strokeColor=none;fillColor=none;align=left;verticalAlign=top;spacingLeft=4;spacingRight=4;overflow=hidden;rotatable=0;points=[[0,0.5],[1,0.5]];portConstraint=eastwest;whiteSpace=wrap;html=1;fontFamily=Helvetica;fontSize=11;fontColor=default;labelBackgroundColor=none;" vertex="1" parent="w13ybTUpAUzulzF94Kuo-72">
          <mxGeometry y="26" width="271" height="30" as="geometry" />
        </mxCell>
        <mxCell id="w13ybTUpAUzulzF94Kuo-74" value="" style="line;strokeWidth=1;fillColor=none;align=left;verticalAlign=middle;spacingTop=-1;spacingLeft=3;spacingRight=3;rotatable=0;labelPosition=right;points=[];portConstraint=eastwest;strokeColor=inherit;fontFamily=Helvetica;fontSize=11;fontColor=default;labelBackgroundColor=none;" vertex="1" parent="w13ybTUpAUzulzF94Kuo-72">
          <mxGeometry y="56" width="271" height="16.00446428571429" as="geometry" />
        </mxCell>
        <mxCell id="w13ybTUpAUzulzF94Kuo-75" value="+PrezentareTable()" style="text;strokeColor=none;fillColor=none;align=left;verticalAlign=top;spacingLeft=4;spacingRight=4;overflow=hidden;rotatable=0;points=[[0,0.5],[1,0.5]];portConstraint=eastwest;whiteSpace=wrap;html=1;fontFamily=Helvetica;fontSize=11;fontColor=default;labelBackgroundColor=none;" vertex="1" parent="w13ybTUpAUzulzF94Kuo-72">
          <mxGeometry y="72.00446428571429" width="271" height="30" as="geometry" />
        </mxCell>
        <mxCell id="w13ybTUpAUzulzF94Kuo-76" value="-rowToPrezentare(DataRow row)&lt;span style=&quot;white-space: pre;&quot;&gt;&#x9;&lt;/span&gt;" style="text;strokeColor=none;fillColor=none;align=left;verticalAlign=top;spacingLeft=4;spacingRight=4;overflow=hidden;rotatable=0;points=[[0,0.5],[1,0.5]];portConstraint=eastwest;whiteSpace=wrap;html=1;fontFamily=Helvetica;fontSize=11;fontColor=default;labelBackgroundColor=none;" vertex="1" parent="w13ybTUpAUzulzF94Kuo-72">
          <mxGeometry y="102.00446428571429" width="271" height="30" as="geometry" />
        </mxCell>
        <mxCell id="w13ybTUpAUzulzF94Kuo-77" value="+AddPrezentare(Prezentare prezentare)" style="text;strokeColor=none;fillColor=none;align=left;verticalAlign=top;spacingLeft=4;spacingRight=4;overflow=hidden;rotatable=0;points=[[0,0.5],[1,0.5]];portConstraint=eastwest;whiteSpace=wrap;html=1;fontFamily=Helvetica;fontSize=11;fontColor=default;labelBackgroundColor=none;" vertex="1" parent="w13ybTUpAUzulzF94Kuo-72">
          <mxGeometry y="132.00446428571428" width="271" height="30" as="geometry" />
        </mxCell>
        <mxCell id="w13ybTUpAUzulzF94Kuo-78" value="+GetPrezentari()" style="text;strokeColor=none;fillColor=none;align=left;verticalAlign=top;spacingLeft=4;spacingRight=4;overflow=hidden;rotatable=0;points=[[0,0.5],[1,0.5]];portConstraint=eastwest;whiteSpace=wrap;html=1;fontFamily=Helvetica;fontSize=11;fontColor=default;labelBackgroundColor=none;" vertex="1" parent="w13ybTUpAUzulzF94Kuo-72">
          <mxGeometry y="162.00446428571428" width="271" height="30" as="geometry" />
        </mxCell>
        <mxCell id="w13ybTUpAUzulzF94Kuo-79" value="+UpdatePrezentare(Prezentare prezentare)" style="text;strokeColor=none;fillColor=none;align=left;verticalAlign=top;spacingLeft=4;spacingRight=4;overflow=hidden;rotatable=0;points=[[0,0.5],[1,0.5]];portConstraint=eastwest;whiteSpace=wrap;html=1;fontFamily=Helvetica;fontSize=11;fontColor=default;labelBackgroundColor=none;" vertex="1" parent="w13ybTUpAUzulzF94Kuo-72">
          <mxGeometry y="192.00446428571428" width="271" height="30" as="geometry" />
        </mxCell>
        <mxCell id="w13ybTUpAUzulzF94Kuo-80" value="+DeletePrezentare(int id)" style="text;strokeColor=none;fillColor=none;align=left;verticalAlign=top;spacingLeft=4;spacingRight=4;overflow=hidden;rotatable=0;points=[[0,0.5],[1,0.5]];portConstraint=eastwest;whiteSpace=wrap;html=1;fontFamily=Helvetica;fontSize=11;fontColor=default;labelBackgroundColor=none;" vertex="1" parent="w13ybTUpAUzulzF94Kuo-72">
          <mxGeometry y="222.00446428571428" width="271" height="30" as="geometry" />
        </mxCell>
        <mxCell id="w13ybTUpAUzulzF94Kuo-81" value="+GetPrezentarebySectiune(Sectiune sectiune)" style="text;strokeColor=none;fillColor=none;align=left;verticalAlign=top;spacingLeft=4;spacingRight=4;overflow=hidden;rotatable=0;points=[[0,0.5],[1,0.5]];portConstraint=eastwest;whiteSpace=wrap;html=1;fontFamily=Helvetica;fontSize=11;fontColor=default;labelBackgroundColor=none;" vertex="1" parent="w13ybTUpAUzulzF94Kuo-72">
          <mxGeometry y="252.00446428571428" width="271" height="30" as="geometry" />
        </mxCell>
        <mxCell id="w13ybTUpAUzulzF94Kuo-82" style="rounded=0;orthogonalLoop=1;jettySize=auto;html=1;strokeColor=#00FF80;align=center;verticalAlign=middle;fontFamily=Helvetica;fontSize=11;fontColor=default;labelBackgroundColor=none;edgeStyle=none;endArrow=classic;" edge="1" parent="w13ybTUpAUzulzF94Kuo-62" source="w13ybTUpAUzulzF94Kuo-86" target="w13ybTUpAUzulzF94Kuo-72">
          <mxGeometry relative="1" as="geometry" />
        </mxCell>
        <mxCell id="w13ybTUpAUzulzF94Kuo-83" style="edgeStyle=none;rounded=0;orthogonalLoop=1;jettySize=auto;html=1;strokeColor=default;align=center;verticalAlign=middle;fontFamily=Helvetica;fontSize=11;fontColor=default;labelBackgroundColor=none;endArrow=classic;" edge="1" parent="w13ybTUpAUzulzF94Kuo-62" source="w13ybTUpAUzulzF94Kuo-86" target="w13ybTUpAUzulzF94Kuo-93">
          <mxGeometry relative="1" as="geometry" />
        </mxCell>
        <mxCell id="w13ybTUpAUzulzF94Kuo-84" style="edgeStyle=none;rounded=0;orthogonalLoop=1;jettySize=auto;html=1;strokeColor=default;align=center;verticalAlign=middle;fontFamily=Helvetica;fontSize=11;fontColor=default;labelBackgroundColor=none;endArrow=classic;" edge="1" parent="w13ybTUpAUzulzF94Kuo-62" source="w13ybTUpAUzulzF94Kuo-86" target="w13ybTUpAUzulzF94Kuo-63">
          <mxGeometry relative="1" as="geometry" />
        </mxCell>
        <mxCell id="w13ybTUpAUzulzF94Kuo-85" style="edgeStyle=none;rounded=0;orthogonalLoop=1;jettySize=auto;html=1;entryX=0.25;entryY=0;entryDx=0;entryDy=0;strokeColor=default;align=center;verticalAlign=middle;fontFamily=Helvetica;fontSize=11;fontColor=default;labelBackgroundColor=none;endArrow=classic;" edge="1" parent="w13ybTUpAUzulzF94Kuo-62" source="w13ybTUpAUzulzF94Kuo-86" target="w13ybTUpAUzulzF94Kuo-104">
          <mxGeometry relative="1" as="geometry" />
        </mxCell>
        <mxCell id="w13ybTUpAUzulzF94Kuo-86" value="Repository" style="swimlane;fontStyle=1;align=center;verticalAlign=top;childLayout=stackLayout;horizontal=1;startSize=26;horizontalStack=0;resizeParent=1;resizeParentMax=0;resizeLast=0;collapsible=1;marginBottom=0;whiteSpace=wrap;html=1;fillColor=#1ba1e2;strokeColor=#006EAF;fontColor=#ffffff;fontFamily=Helvetica;fontSize=11;labelBackgroundColor=none;" vertex="1" parent="w13ybTUpAUzulzF94Kuo-62">
          <mxGeometry x="30" y="40" width="200" height="191" as="geometry">
            <mxRectangle x="280" y="60" width="90" height="75" as="alternateBounds" />
          </mxGeometry>
        </mxCell>
        <mxCell id="w13ybTUpAUzulzF94Kuo-87" value="+ Connections : String" style="text;strokeColor=none;fillColor=none;align=left;verticalAlign=top;spacingLeft=4;spacingRight=4;overflow=hidden;rotatable=0;points=[[0,0.5],[1,0.5]];portConstraint=eastwest;whiteSpace=wrap;html=1;fontFamily=Helvetica;fontSize=11;fontColor=default;labelBackgroundColor=none;" vertex="1" parent="w13ybTUpAUzulzF94Kuo-86">
          <mxGeometry y="26" width="200" height="30" as="geometry" />
        </mxCell>
        <mxCell id="w13ybTUpAUzulzF94Kuo-88" value="" style="line;strokeWidth=1;fillColor=none;align=left;verticalAlign=middle;spacingTop=-1;spacingLeft=3;spacingRight=3;rotatable=0;labelPosition=right;points=[];portConstraint=eastwest;strokeColor=inherit;fontFamily=Helvetica;fontSize=11;fontColor=default;labelBackgroundColor=none;" vertex="1" parent="w13ybTUpAUzulzF94Kuo-86">
          <mxGeometry y="56" width="200" height="15" as="geometry" />
        </mxCell>
        <mxCell id="w13ybTUpAUzulzF94Kuo-89" value="+ OpenConnection" style="text;strokeColor=none;fillColor=none;align=left;verticalAlign=top;spacingLeft=4;spacingRight=4;overflow=hidden;rotatable=0;points=[[0,0.5],[1,0.5]];portConstraint=eastwest;whiteSpace=wrap;html=1;fontFamily=Helvetica;fontSize=11;fontColor=default;labelBackgroundColor=none;" vertex="1" parent="w13ybTUpAUzulzF94Kuo-86">
          <mxGeometry y="71" width="200" height="30" as="geometry" />
        </mxCell>
        <mxCell id="w13ybTUpAUzulzF94Kuo-90" value="+ CloseConnection" style="text;strokeColor=none;fillColor=none;align=left;verticalAlign=top;spacingLeft=4;spacingRight=4;overflow=hidden;rotatable=0;points=[[0,0.5],[1,0.5]];portConstraint=eastwest;whiteSpace=wrap;html=1;fontFamily=Helvetica;fontSize=11;fontColor=default;labelBackgroundColor=none;" vertex="1" parent="w13ybTUpAUzulzF94Kuo-86">
          <mxGeometry y="101" width="200" height="30" as="geometry" />
        </mxCell>
        <mxCell id="w13ybTUpAUzulzF94Kuo-91" value="+ExecuteNonQuery(string query)" style="text;strokeColor=none;fillColor=none;align=left;verticalAlign=top;spacingLeft=4;spacingRight=4;overflow=hidden;rotatable=0;points=[[0,0.5],[1,0.5]];portConstraint=eastwest;whiteSpace=wrap;html=1;fontFamily=Helvetica;fontSize=11;fontColor=default;labelBackgroundColor=none;" vertex="1" parent="w13ybTUpAUzulzF94Kuo-86">
          <mxGeometry y="131" width="200" height="30" as="geometry" />
        </mxCell>
        <mxCell id="w13ybTUpAUzulzF94Kuo-92" value="+ExecuteQuery(string query)" style="text;strokeColor=none;fillColor=none;align=left;verticalAlign=top;spacingLeft=4;spacingRight=4;overflow=hidden;rotatable=0;points=[[0,0.5],[1,0.5]];portConstraint=eastwest;whiteSpace=wrap;html=1;fontFamily=Helvetica;fontSize=11;fontColor=default;labelBackgroundColor=none;" vertex="1" parent="w13ybTUpAUzulzF94Kuo-86">
          <mxGeometry y="161" width="200" height="30" as="geometry" />
        </mxCell>
        <mxCell id="w13ybTUpAUzulzF94Kuo-93" value="UtilizatorRepository" style="swimlane;fontStyle=1;align=center;verticalAlign=top;childLayout=stackLayout;horizontal=1;startSize=26;horizontalStack=0;resizeParent=1;resizeParentMax=0;resizeLast=0;collapsible=1;marginBottom=0;whiteSpace=wrap;html=1;fillColor=#1ba1e2;strokeColor=#006EAF;fontColor=#ffffff;fontFamily=Helvetica;fontSize=11;labelBackgroundColor=none;" vertex="1" parent="w13ybTUpAUzulzF94Kuo-62">
          <mxGeometry x="290" y="330.0044642857143" width="340" height="312.0044642857143" as="geometry">
            <mxRectangle x="310" y="170.00446428571428" width="150" height="93.75" as="alternateBounds" />
          </mxGeometry>
        </mxCell>
        <mxCell id="w13ybTUpAUzulzF94Kuo-94" value="+ Repository : Repository" style="text;strokeColor=none;fillColor=none;align=left;verticalAlign=top;spacingLeft=4;spacingRight=4;overflow=hidden;rotatable=0;points=[[0,0.5],[1,0.5]];portConstraint=eastwest;whiteSpace=wrap;html=1;fontFamily=Helvetica;fontSize=11;fontColor=default;labelBackgroundColor=none;" vertex="1" parent="w13ybTUpAUzulzF94Kuo-93">
          <mxGeometry y="26" width="340" height="30" as="geometry" />
        </mxCell>
        <mxCell id="w13ybTUpAUzulzF94Kuo-95" value="" style="line;strokeWidth=1;fillColor=none;align=left;verticalAlign=middle;spacingTop=-1;spacingLeft=3;spacingRight=3;rotatable=0;labelPosition=right;points=[];portConstraint=eastwest;strokeColor=inherit;fontFamily=Helvetica;fontSize=11;fontColor=default;labelBackgroundColor=none;" vertex="1" parent="w13ybTUpAUzulzF94Kuo-93">
          <mxGeometry y="56" width="340" height="16.00446428571429" as="geometry" />
        </mxCell>
        <mxCell id="w13ybTUpAUzulzF94Kuo-96" value="+UtilizatorTable()" style="text;strokeColor=none;fillColor=none;align=left;verticalAlign=top;spacingLeft=4;spacingRight=4;overflow=hidden;rotatable=0;points=[[0,0.5],[1,0.5]];portConstraint=eastwest;whiteSpace=wrap;html=1;fontFamily=Helvetica;fontSize=11;fontColor=default;labelBackgroundColor=none;" vertex="1" parent="w13ybTUpAUzulzF94Kuo-93">
          <mxGeometry y="72.00446428571429" width="340" height="30" as="geometry" />
        </mxCell>
        <mxCell id="w13ybTUpAUzulzF94Kuo-97" value="-rowToUtilizator(DataRow row)" style="text;strokeColor=none;fillColor=none;align=left;verticalAlign=top;spacingLeft=4;spacingRight=4;overflow=hidden;rotatable=0;points=[[0,0.5],[1,0.5]];portConstraint=eastwest;whiteSpace=wrap;html=1;fontFamily=Helvetica;fontSize=11;fontColor=default;labelBackgroundColor=none;" vertex="1" parent="w13ybTUpAUzulzF94Kuo-93">
          <mxGeometry y="102.00446428571429" width="340" height="30" as="geometry" />
        </mxCell>
        <mxCell id="w13ybTUpAUzulzF94Kuo-98" value="+addUtilizator(Utilizator utilizator)" style="text;strokeColor=none;fillColor=none;align=left;verticalAlign=top;spacingLeft=4;spacingRight=4;overflow=hidden;rotatable=0;points=[[0,0.5],[1,0.5]];portConstraint=eastwest;whiteSpace=wrap;html=1;fontFamily=Helvetica;fontSize=11;fontColor=default;labelBackgroundColor=none;" vertex="1" parent="w13ybTUpAUzulzF94Kuo-93">
          <mxGeometry y="132.00446428571428" width="340" height="30" as="geometry" />
        </mxCell>
        <mxCell id="w13ybTUpAUzulzF94Kuo-99" value="+GetUtilizatori()" style="text;strokeColor=none;fillColor=none;align=left;verticalAlign=top;spacingLeft=4;spacingRight=4;overflow=hidden;rotatable=0;points=[[0,0.5],[1,0.5]];portConstraint=eastwest;whiteSpace=wrap;html=1;fontFamily=Helvetica;fontSize=11;fontColor=default;labelBackgroundColor=none;" vertex="1" parent="w13ybTUpAUzulzF94Kuo-93">
          <mxGeometry y="162.00446428571428" width="340" height="30" as="geometry" />
        </mxCell>
        <mxCell id="w13ybTUpAUzulzF94Kuo-100" value="+updateUtilizator(Utilizator utilizator)" style="text;strokeColor=none;fillColor=none;align=left;verticalAlign=top;spacingLeft=4;spacingRight=4;overflow=hidden;rotatable=0;points=[[0,0.5],[1,0.5]];portConstraint=eastwest;whiteSpace=wrap;html=1;fontFamily=Helvetica;fontSize=11;fontColor=default;labelBackgroundColor=none;" vertex="1" parent="w13ybTUpAUzulzF94Kuo-93">
          <mxGeometry y="192.00446428571428" width="340" height="30" as="geometry" />
        </mxCell>
        <mxCell id="w13ybTUpAUzulzF94Kuo-101" value="+deleteUtilizator(int id)" style="text;strokeColor=none;fillColor=none;align=left;verticalAlign=top;spacingLeft=4;spacingRight=4;overflow=hidden;rotatable=0;points=[[0,0.5],[1,0.5]];portConstraint=eastwest;whiteSpace=wrap;html=1;fontFamily=Helvetica;fontSize=11;fontColor=default;labelBackgroundColor=none;" vertex="1" parent="w13ybTUpAUzulzF94Kuo-93">
          <mxGeometry y="222.00446428571428" width="340" height="30" as="geometry" />
        </mxCell>
        <mxCell id="w13ybTUpAUzulzF94Kuo-102" value="+GetUtilizatorbyEmailandParola(string email, string parola)" style="text;strokeColor=none;fillColor=none;align=left;verticalAlign=top;spacingLeft=4;spacingRight=4;overflow=hidden;rotatable=0;points=[[0,0.5],[1,0.5]];portConstraint=eastwest;whiteSpace=wrap;html=1;fontFamily=Helvetica;fontSize=11;fontColor=default;labelBackgroundColor=none;" vertex="1" parent="w13ybTUpAUzulzF94Kuo-93">
          <mxGeometry y="252.00446428571428" width="340" height="30" as="geometry" />
        </mxCell>
        <mxCell id="w13ybTUpAUzulzF94Kuo-103" value="+GetUtilizatorsbyUserType(UserType userType)" style="text;strokeColor=none;fillColor=none;align=left;verticalAlign=top;spacingLeft=4;spacingRight=4;overflow=hidden;rotatable=0;points=[[0,0.5],[1,0.5]];portConstraint=eastwest;whiteSpace=wrap;html=1;fontFamily=Helvetica;fontSize=11;fontColor=default;labelBackgroundColor=none;" vertex="1" parent="w13ybTUpAUzulzF94Kuo-93">
          <mxGeometry y="282.0044642857143" width="340" height="30" as="geometry" />
        </mxCell>
        <mxCell id="w13ybTUpAUzulzF94Kuo-104" value="ParticipantiRepository" style="swimlane;fontStyle=1;align=center;verticalAlign=top;childLayout=stackLayout;horizontal=1;startSize=26;horizontalStack=0;resizeParent=1;resizeParentMax=0;resizeLast=0;collapsible=1;marginBottom=0;whiteSpace=wrap;html=1;fillColor=#1ba1e2;strokeColor=#006EAF;fontColor=#ffffff;fontFamily=Helvetica;fontSize=11;labelBackgroundColor=none;" vertex="1" parent="w13ybTUpAUzulzF94Kuo-62">
          <mxGeometry x="660.0014285714287" y="309.99669642857145" width="340" height="342.0044642857143" as="geometry">
            <mxRectangle x="220.00142857142873" y="319.99669642857145" width="150" height="93.75" as="alternateBounds" />
          </mxGeometry>
        </mxCell>
        <mxCell id="w13ybTUpAUzulzF94Kuo-105" value="+ Repository : Repository" style="text;strokeColor=none;fillColor=none;align=left;verticalAlign=top;spacingLeft=4;spacingRight=4;overflow=hidden;rotatable=0;points=[[0,0.5],[1,0.5]];portConstraint=eastwest;whiteSpace=wrap;html=1;fontFamily=Helvetica;fontSize=11;fontColor=default;labelBackgroundColor=none;" vertex="1" parent="w13ybTUpAUzulzF94Kuo-104">
          <mxGeometry y="26" width="340" height="30" as="geometry" />
        </mxCell>
        <mxCell id="w13ybTUpAUzulzF94Kuo-106" value="+UtilizatorRepository : utilizatorRepository" style="text;strokeColor=none;fillColor=none;align=left;verticalAlign=top;spacingLeft=4;spacingRight=4;overflow=hidden;rotatable=0;points=[[0,0.5],[1,0.5]];portConstraint=eastwest;whiteSpace=wrap;html=1;fontFamily=Helvetica;fontSize=11;fontColor=default;labelBackgroundColor=none;" vertex="1" parent="w13ybTUpAUzulzF94Kuo-104">
          <mxGeometry y="56" width="340" height="30" as="geometry" />
        </mxCell>
        <mxCell id="w13ybTUpAUzulzF94Kuo-107" value="+PrezentareRepository : prezentareRepository" style="text;strokeColor=none;fillColor=none;align=left;verticalAlign=top;spacingLeft=4;spacingRight=4;overflow=hidden;rotatable=0;points=[[0,0.5],[1,0.5]];portConstraint=eastwest;whiteSpace=wrap;html=1;fontFamily=Helvetica;fontSize=11;fontColor=default;labelBackgroundColor=none;" vertex="1" parent="w13ybTUpAUzulzF94Kuo-104">
          <mxGeometry y="86" width="340" height="30" as="geometry" />
        </mxCell>
        <mxCell id="w13ybTUpAUzulzF94Kuo-108" value="" style="line;strokeWidth=1;fillColor=none;align=left;verticalAlign=middle;spacingTop=-1;spacingLeft=3;spacingRight=3;rotatable=0;labelPosition=right;points=[];portConstraint=eastwest;strokeColor=inherit;fontFamily=Helvetica;fontSize=11;fontColor=default;labelBackgroundColor=none;" vertex="1" parent="w13ybTUpAUzulzF94Kuo-104">
          <mxGeometry y="116" width="340" height="16.00446428571429" as="geometry" />
        </mxCell>
        <mxCell id="w13ybTUpAUzulzF94Kuo-109" value="-rowToParticipant(DataRow row)" style="text;strokeColor=none;fillColor=none;align=left;verticalAlign=top;spacingLeft=4;spacingRight=4;overflow=hidden;rotatable=0;points=[[0,0.5],[1,0.5]];portConstraint=eastwest;whiteSpace=wrap;html=1;fontFamily=Helvetica;fontSize=11;fontColor=default;labelBackgroundColor=none;" vertex="1" parent="w13ybTUpAUzulzF94Kuo-104">
          <mxGeometry y="132.00446428571428" width="340" height="30" as="geometry" />
        </mxCell>
        <mxCell id="w13ybTUpAUzulzF94Kuo-110" value="+GetParticipanti()" style="text;strokeColor=none;fillColor=none;align=left;verticalAlign=top;spacingLeft=4;spacingRight=4;overflow=hidden;rotatable=0;points=[[0,0.5],[1,0.5]];portConstraint=eastwest;whiteSpace=wrap;html=1;fontFamily=Helvetica;fontSize=11;fontColor=default;labelBackgroundColor=none;" vertex="1" parent="w13ybTUpAUzulzF94Kuo-104">
          <mxGeometry y="162.00446428571428" width="340" height="30" as="geometry" />
        </mxCell>
        <mxCell id="w13ybTUpAUzulzF94Kuo-111" value="+GetParticipantibyPrezentare(Prezentare prezentare)" style="text;strokeColor=none;fillColor=none;align=left;verticalAlign=top;spacingLeft=4;spacingRight=4;overflow=hidden;rotatable=0;points=[[0,0.5],[1,0.5]];portConstraint=eastwest;whiteSpace=wrap;html=1;fontFamily=Helvetica;fontSize=11;fontColor=default;labelBackgroundColor=none;" vertex="1" parent="w13ybTUpAUzulzF94Kuo-104">
          <mxGeometry y="192.00446428571428" width="340" height="30" as="geometry" />
        </mxCell>
        <mxCell id="w13ybTUpAUzulzF94Kuo-112" value="+GetParticipantibySectiune(Sectiune sectiune)" style="text;strokeColor=none;fillColor=none;align=left;verticalAlign=top;spacingLeft=4;spacingRight=4;overflow=hidden;rotatable=0;points=[[0,0.5],[1,0.5]];portConstraint=eastwest;whiteSpace=wrap;html=1;fontFamily=Helvetica;fontSize=11;fontColor=default;labelBackgroundColor=none;" vertex="1" parent="w13ybTUpAUzulzF94Kuo-104">
          <mxGeometry y="222.00446428571428" width="340" height="30" as="geometry" />
        </mxCell>
        <mxCell id="w13ybTUpAUzulzF94Kuo-113" value="+addParticipant(Participant participant)" style="text;strokeColor=none;fillColor=none;align=left;verticalAlign=top;spacingLeft=4;spacingRight=4;overflow=hidden;rotatable=0;points=[[0,0.5],[1,0.5]];portConstraint=eastwest;whiteSpace=wrap;html=1;fontFamily=Helvetica;fontSize=11;fontColor=default;labelBackgroundColor=none;" vertex="1" parent="w13ybTUpAUzulzF94Kuo-104">
          <mxGeometry y="252.00446428571428" width="340" height="30" as="geometry" />
        </mxCell>
        <mxCell id="w13ybTUpAUzulzF94Kuo-114" value="+updateParticipant(Participant participant)" style="text;strokeColor=none;fillColor=none;align=left;verticalAlign=top;spacingLeft=4;spacingRight=4;overflow=hidden;rotatable=0;points=[[0,0.5],[1,0.5]];portConstraint=eastwest;whiteSpace=wrap;html=1;fontFamily=Helvetica;fontSize=11;fontColor=default;labelBackgroundColor=none;" vertex="1" parent="w13ybTUpAUzulzF94Kuo-104">
          <mxGeometry y="282.0044642857143" width="340" height="30" as="geometry" />
        </mxCell>
        <mxCell id="w13ybTUpAUzulzF94Kuo-115" value="+deleteParticipant(Participant participant)" style="text;strokeColor=none;fillColor=none;align=left;verticalAlign=top;spacingLeft=4;spacingRight=4;overflow=hidden;rotatable=0;points=[[0,0.5],[1,0.5]];portConstraint=eastwest;whiteSpace=wrap;html=1;fontFamily=Helvetica;fontSize=11;fontColor=default;labelBackgroundColor=none;" vertex="1" parent="w13ybTUpAUzulzF94Kuo-104">
          <mxGeometry y="312.0044642857143" width="340" height="30" as="geometry" />
        </mxCell>
        <mxCell id="w13ybTUpAUzulzF94Kuo-116" style="edgeStyle=none;rounded=0;orthogonalLoop=1;jettySize=auto;html=1;strokeColor=default;align=center;verticalAlign=middle;fontFamily=Helvetica;fontSize=11;fontColor=default;labelBackgroundColor=none;endArrow=classic;" edge="1" parent="1" source="w13ybTUpAUzulzF94Kuo-4" target="w13ybTUpAUzulzF94Kuo-72">
          <mxGeometry relative="1" as="geometry" />
        </mxCell>
        <mxCell id="w13ybTUpAUzulzF94Kuo-117" style="edgeStyle=none;rounded=0;orthogonalLoop=1;jettySize=auto;html=1;strokeColor=default;align=center;verticalAlign=middle;fontFamily=Helvetica;fontSize=11;fontColor=default;labelBackgroundColor=none;endArrow=classic;" edge="1" parent="1" source="w13ybTUpAUzulzF94Kuo-28" target="w13ybTUpAUzulzF94Kuo-93">
          <mxGeometry relative="1" as="geometry" />
        </mxCell>
        <mxCell id="w13ybTUpAUzulzF94Kuo-118" style="edgeStyle=none;rounded=0;orthogonalLoop=1;jettySize=auto;html=1;strokeColor=default;align=center;verticalAlign=middle;fontFamily=Helvetica;fontSize=11;fontColor=default;labelBackgroundColor=none;endArrow=classic;" edge="1" parent="1" source="w13ybTUpAUzulzF94Kuo-45" target="w13ybTUpAUzulzF94Kuo-104">
          <mxGeometry relative="1" as="geometry" />
        </mxCell>
        <mxCell id="w13ybTUpAUzulzF94Kuo-119" style="edgeStyle=orthogonalEdgeStyle;rounded=0;orthogonalLoop=1;jettySize=auto;html=1;strokeColor=default;align=center;verticalAlign=middle;fontFamily=Helvetica;fontSize=11;fontColor=default;labelBackgroundColor=none;endArrow=classic;" edge="1" parent="1" source="w13ybTUpAUzulzF94Kuo-17" target="w13ybTUpAUzulzF94Kuo-63">
          <mxGeometry relative="1" as="geometry">
            <Array as="points">
              <mxPoint x="630" y="674" />
              <mxPoint x="630" y="-94" />
            </Array>
          </mxGeometry>
        </mxCell>
        <mxCell id="w13ybTUpAUzulzF94Kuo-120" value="View" parent="0" visible="0" />
        <mxCell id="w13ybTUpAUzulzF94Kuo-122" value="VIEW" style="shape=folder;fontStyle=1;spacingTop=10;tabWidth=80;tabHeight=20;tabPosition=left;html=1;whiteSpace=wrap;verticalAlign=top;fontSize=25;fontFamily=Times New Roman;container=1;labelBackgroundColor=none;recursiveResize=0;movable=1;resizable=1;rotatable=1;deletable=1;editable=1;locked=0;connectable=1;gradientDirection=north;fillColor=#fff2cc;strokeColor=#d6b656;expand=1;collapsible=0;" vertex="1" parent="w13ybTUpAUzulzF94Kuo-120">
          <mxGeometry x="-342" y="-1119" width="694" height="706" as="geometry">
            <mxRectangle x="-800" y="-170" width="150" height="50" as="alternateBounds" />
          </mxGeometry>
        </mxCell>
        <mxCell id="w13ybTUpAUzulzF94Kuo-284" value="OrganizatorPage : UserControl" style="swimlane;fontStyle=1;childLayout=stackLayout;horizontal=1;startSize=26;horizontalStack=0;resizeParent=1;resizeParentMax=0;resizeLast=0;collapsible=0;marginBottom=0;fontFamily=Helvetica;fontSize=11;labelBackgroundColor=none;fillColor=#d5e8d4;strokeColor=#82b366;autosize=1;expand=1;" vertex="1" parent="w13ybTUpAUzulzF94Kuo-122">
          <mxGeometry x="14" y="69" width="263" height="408.9971207818927" as="geometry">
            <mxRectangle x="-974" y="-1533" width="369" height="1542" as="alternateBounds" />
          </mxGeometry>
        </mxCell>
        <mxCell id="w13ybTUpAUzulzF94Kuo-286" value="- IdParticipant: TextBox" style="text;strokeColor=none;fillColor=none;align=left;verticalAlign=top;spacingLeft=4;spacingRight=4;overflow=hidden;rotatable=0;points=[[0,0.5],[1,0.5]];portConstraint=eastwest;fontFamily=Helvetica;fontSize=11;fontColor=default;labelBackgroundColor=none;" vertex="1" parent="w13ybTUpAUzulzF94Kuo-284">
          <mxGeometry y="26" width="263" height="25" as="geometry" />
        </mxCell>
        <mxCell id="w13ybTUpAUzulzF94Kuo-287" value="- NumeTextBox: TextBox" style="text;strokeColor=none;fillColor=none;align=left;verticalAlign=top;spacingLeft=4;spacingRight=4;overflow=hidden;rotatable=0;points=[[0,0.5],[1,0.5]];portConstraint=eastwest;fontFamily=Helvetica;fontSize=11;fontColor=default;labelBackgroundColor=none;" vertex="1" parent="w13ybTUpAUzulzF94Kuo-284">
          <mxGeometry y="51" width="263" height="25" as="geometry" />
        </mxCell>
        <mxCell id="w13ybTUpAUzulzF94Kuo-288" value="- EmailTextBox: TextBox" style="text;strokeColor=none;fillColor=none;align=left;verticalAlign=top;spacingLeft=4;spacingRight=4;overflow=hidden;rotatable=0;points=[[0,0.5],[1,0.5]];portConstraint=eastwest;fontFamily=Helvetica;fontSize=11;fontColor=default;labelBackgroundColor=none;" vertex="1" parent="w13ybTUpAUzulzF94Kuo-284">
          <mxGeometry y="76" width="263" height="25" as="geometry" />
        </mxCell>
        <mxCell id="w13ybTUpAUzulzF94Kuo-289" value="- TelefonTextBox: TextBox" style="text;strokeColor=none;fillColor=none;align=left;verticalAlign=top;spacingLeft=4;spacingRight=4;overflow=hidden;rotatable=0;points=[[0,0.5],[1,0.5]];portConstraint=eastwest;fontFamily=Helvetica;fontSize=11;fontColor=default;labelBackgroundColor=none;" vertex="1" parent="w13ybTUpAUzulzF94Kuo-284">
          <mxGeometry y="101" width="263" height="25" as="geometry" />
        </mxCell>
        <mxCell id="w13ybTUpAUzulzF94Kuo-290" value="- IdPrezentareTextBox: TextBox" style="text;strokeColor=none;fillColor=none;align=left;verticalAlign=top;spacingLeft=4;spacingRight=4;overflow=hidden;rotatable=0;points=[[0,0.5],[1,0.5]];portConstraint=eastwest;fontFamily=Helvetica;fontSize=11;fontColor=default;labelBackgroundColor=none;" vertex="1" parent="w13ybTUpAUzulzF94Kuo-284">
          <mxGeometry y="126" width="263" height="25" as="geometry" />
        </mxCell>
        <mxCell id="w13ybTUpAUzulzF94Kuo-291" value="- TitluTextBox: TextBox" style="text;strokeColor=none;fillColor=none;align=left;verticalAlign=top;spacingLeft=4;spacingRight=4;overflow=hidden;rotatable=0;points=[[0,0.5],[1,0.5]];portConstraint=eastwest;fontFamily=Helvetica;fontSize=11;fontColor=default;labelBackgroundColor=none;" vertex="1" parent="w13ybTUpAUzulzF94Kuo-284">
          <mxGeometry y="151" width="263" height="25" as="geometry" />
        </mxCell>
        <mxCell id="w13ybTUpAUzulzF94Kuo-292" value="- AutorTextBox: TextBox" style="text;strokeColor=none;fillColor=none;align=left;verticalAlign=top;spacingLeft=4;spacingRight=4;overflow=hidden;rotatable=0;points=[[0,0.5],[1,0.5]];portConstraint=eastwest;fontFamily=Helvetica;fontSize=11;fontColor=default;labelBackgroundColor=none;" vertex="1" parent="w13ybTUpAUzulzF94Kuo-284">
          <mxGeometry y="176" width="263" height="25" as="geometry" />
        </mxCell>
        <mxCell id="w13ybTUpAUzulzF94Kuo-293" value="- DescriereTextBox: TextBox" style="text;strokeColor=none;fillColor=none;align=left;verticalAlign=top;spacingLeft=4;spacingRight=4;overflow=hidden;rotatable=0;points=[[0,0.5],[1,0.5]];portConstraint=eastwest;fontFamily=Helvetica;fontSize=11;fontColor=default;labelBackgroundColor=none;" vertex="1" parent="w13ybTUpAUzulzF94Kuo-284">
          <mxGeometry y="201" width="263" height="25" as="geometry" />
        </mxCell>
        <mxCell id="w13ybTUpAUzulzF94Kuo-294" value="- DataDatePicker: DatePicker" style="text;strokeColor=none;fillColor=none;align=left;verticalAlign=top;spacingLeft=4;spacingRight=4;overflow=hidden;rotatable=0;points=[[0,0.5],[1,0.5]];portConstraint=eastwest;fontFamily=Helvetica;fontSize=11;fontColor=default;labelBackgroundColor=none;" vertex="1" parent="w13ybTUpAUzulzF94Kuo-284">
          <mxGeometry y="226" width="263" height="25" as="geometry" />
        </mxCell>
        <mxCell id="w13ybTUpAUzulzF94Kuo-295" value="- OraTextBox: TextBox" style="text;strokeColor=none;fillColor=none;align=left;verticalAlign=top;spacingLeft=4;spacingRight=4;overflow=hidden;rotatable=0;points=[[0,0.5],[1,0.5]];portConstraint=eastwest;fontFamily=Helvetica;fontSize=11;fontColor=default;labelBackgroundColor=none;" vertex="1" parent="w13ybTUpAUzulzF94Kuo-284">
          <mxGeometry y="251" width="263" height="25" as="geometry" />
        </mxCell>
        <mxCell id="w13ybTUpAUzulzF94Kuo-296" value="- ComboBoxSectiune: ComboBox" style="text;strokeColor=none;fillColor=none;align=left;verticalAlign=top;spacingLeft=4;spacingRight=4;overflow=hidden;rotatable=0;points=[[0,0.5],[1,0.5]];portConstraint=eastwest;fontFamily=Helvetica;fontSize=11;fontColor=default;labelBackgroundColor=none;" vertex="1" parent="w13ybTUpAUzulzF94Kuo-284">
          <mxGeometry y="276" width="263" height="25" as="geometry" />
        </mxCell>
        <mxCell id="w13ybTUpAUzulzF94Kuo-297" value="- ComboBoxSectiuneAdministrare: ComboBox" style="text;strokeColor=none;fillColor=none;align=left;verticalAlign=top;spacingLeft=4;spacingRight=4;overflow=hidden;rotatable=0;points=[[0,0.5],[1,0.5]];portConstraint=eastwest;fontFamily=Helvetica;fontSize=11;fontColor=default;labelBackgroundColor=none;" vertex="1" parent="w13ybTUpAUzulzF94Kuo-284">
          <mxGeometry y="301" width="263" height="25" as="geometry" />
        </mxCell>
        <mxCell id="w13ybTUpAUzulzF94Kuo-298" value="- TabelPrezentari: DataGrid" style="text;strokeColor=none;fillColor=none;align=left;verticalAlign=top;spacingLeft=4;spacingRight=4;overflow=hidden;rotatable=0;points=[[0,0.5],[1,0.5]];portConstraint=eastwest;fontFamily=Helvetica;fontSize=11;fontColor=default;labelBackgroundColor=none;" vertex="1" parent="w13ybTUpAUzulzF94Kuo-284">
          <mxGeometry y="326" width="263" height="25" as="geometry" />
        </mxCell>
        <mxCell id="w13ybTUpAUzulzF94Kuo-299" value="- TabelParticipanti: DataGrid" style="text;strokeColor=none;fillColor=none;align=left;verticalAlign=top;spacingLeft=4;spacingRight=4;overflow=hidden;rotatable=0;points=[[0,0.5],[1,0.5]];portConstraint=eastwest;fontFamily=Helvetica;fontSize=11;fontColor=default;labelBackgroundColor=none;" vertex="1" parent="w13ybTUpAUzulzF94Kuo-284">
          <mxGeometry y="351" width="263" height="25" as="geometry" />
        </mxCell>
        <mxCell id="w13ybTUpAUzulzF94Kuo-300" value="" style="line;strokeWidth=1;fillColor=none;align=left;verticalAlign=middle;spacingTop=-1;spacingLeft=3;spacingRight=3;rotatable=0;labelPosition=right;points=[];portConstraint=eastwest;fontFamily=Helvetica;fontSize=11;fontColor=default;labelBackgroundColor=none;" vertex="1" parent="w13ybTUpAUzulzF94Kuo-284">
          <mxGeometry y="376" width="263" height="7.9971207818926935" as="geometry" />
        </mxCell>
        <mxCell id="w13ybTUpAUzulzF94Kuo-301" value="+ OrganizatorPage(): void" style="text;strokeColor=none;fillColor=none;align=left;verticalAlign=top;spacingLeft=4;spacingRight=4;overflow=hidden;rotatable=0;points=[[0,0.5],[1,0.5]];portConstraint=eastwest;fontFamily=Helvetica;fontSize=11;fontColor=default;labelBackgroundColor=none;" vertex="1" parent="w13ybTUpAUzulzF94Kuo-284">
          <mxGeometry y="383.9971207818927" width="263" height="25" as="geometry" />
        </mxCell>
        <mxCell id="w13ybTUpAUzulzF94Kuo-250" value="AdminPage : UserControl" style="swimlane;fontStyle=1;childLayout=stackLayout;horizontal=1;startSize=26;horizontalStack=0;resizeParent=1;resizeParentMax=0;resizeLast=0;collapsible=0;marginBottom=0;fontFamily=Helvetica;fontSize=11;labelBackgroundColor=none;fillColor=#d5e8d4;strokeColor=#82b366;autosize=0;" vertex="1" parent="w13ybTUpAUzulzF94Kuo-122">
          <mxGeometry x="416" y="69" width="231" height="233.9971207818927" as="geometry">
            <mxRectangle x="-860" y="-696" width="296" height="242" as="alternateBounds" />
          </mxGeometry>
        </mxCell>
        <mxCell id="w13ybTUpAUzulzF94Kuo-252" value="- IdTextBox: TextBox" style="text;strokeColor=none;fillColor=none;align=left;verticalAlign=top;spacingLeft=4;spacingRight=4;overflow=hidden;rotatable=0;points=[[0,0.5],[1,0.5]];portConstraint=eastwest;fontFamily=Helvetica;fontSize=11;fontColor=default;labelBackgroundColor=none;" vertex="1" parent="w13ybTUpAUzulzF94Kuo-250">
          <mxGeometry y="26" width="231" height="25" as="geometry" />
        </mxCell>
        <mxCell id="w13ybTUpAUzulzF94Kuo-253" value="- NumeTextBox: TextBox" style="text;strokeColor=none;fillColor=none;align=left;verticalAlign=top;spacingLeft=4;spacingRight=4;overflow=hidden;rotatable=0;points=[[0,0.5],[1,0.5]];portConstraint=eastwest;fontFamily=Helvetica;fontSize=11;fontColor=default;labelBackgroundColor=none;" vertex="1" parent="w13ybTUpAUzulzF94Kuo-250">
          <mxGeometry y="51" width="231" height="25" as="geometry" />
        </mxCell>
        <mxCell id="w13ybTUpAUzulzF94Kuo-254" value="- EmailTextBox: TextBox" style="text;strokeColor=none;fillColor=none;align=left;verticalAlign=top;spacingLeft=4;spacingRight=4;overflow=hidden;rotatable=0;points=[[0,0.5],[1,0.5]];portConstraint=eastwest;fontFamily=Helvetica;fontSize=11;fontColor=default;labelBackgroundColor=none;" vertex="1" parent="w13ybTUpAUzulzF94Kuo-250">
          <mxGeometry y="76" width="231" height="25" as="geometry" />
        </mxCell>
        <mxCell id="w13ybTUpAUzulzF94Kuo-255" value="- ParolaTextBox: TextBox" style="text;strokeColor=none;fillColor=none;align=left;verticalAlign=top;spacingLeft=4;spacingRight=4;overflow=hidden;rotatable=0;points=[[0,0.5],[1,0.5]];portConstraint=eastwest;fontFamily=Helvetica;fontSize=11;fontColor=default;labelBackgroundColor=none;" vertex="1" parent="w13ybTUpAUzulzF94Kuo-250">
          <mxGeometry y="101" width="231" height="25" as="geometry" />
        </mxCell>
        <mxCell id="w13ybTUpAUzulzF94Kuo-256" value="- UserTypeComboBox: ComboBox" style="text;strokeColor=none;fillColor=none;align=left;verticalAlign=top;spacingLeft=4;spacingRight=4;overflow=hidden;rotatable=0;points=[[0,0.5],[1,0.5]];portConstraint=eastwest;fontFamily=Helvetica;fontSize=11;fontColor=default;labelBackgroundColor=none;" vertex="1" parent="w13ybTUpAUzulzF94Kuo-250">
          <mxGeometry y="126" width="231" height="25" as="geometry" />
        </mxCell>
        <mxCell id="w13ybTUpAUzulzF94Kuo-257" value="- TelefonTextBox: TextBox" style="text;strokeColor=none;fillColor=none;align=left;verticalAlign=top;spacingLeft=4;spacingRight=4;overflow=hidden;rotatable=0;points=[[0,0.5],[1,0.5]];portConstraint=eastwest;fontFamily=Helvetica;fontSize=11;fontColor=default;labelBackgroundColor=none;" vertex="1" parent="w13ybTUpAUzulzF94Kuo-250">
          <mxGeometry y="151" width="231" height="25" as="geometry" />
        </mxCell>
        <mxCell id="w13ybTUpAUzulzF94Kuo-258" value="- TabelUtilizatori: DataGrid" style="text;strokeColor=none;fillColor=none;align=left;verticalAlign=top;spacingLeft=4;spacingRight=4;overflow=hidden;rotatable=0;points=[[0,0.5],[1,0.5]];portConstraint=eastwest;fontFamily=Helvetica;fontSize=11;fontColor=default;labelBackgroundColor=none;" vertex="1" parent="w13ybTUpAUzulzF94Kuo-250">
          <mxGeometry y="176" width="231" height="25" as="geometry" />
        </mxCell>
        <mxCell id="w13ybTUpAUzulzF94Kuo-260" value="" style="line;strokeWidth=1;fillColor=none;align=left;verticalAlign=middle;spacingTop=-1;spacingLeft=3;spacingRight=3;rotatable=0;labelPosition=right;points=[];portConstraint=eastwest;fontFamily=Helvetica;fontSize=11;fontColor=default;labelBackgroundColor=none;" vertex="1" parent="w13ybTUpAUzulzF94Kuo-250">
          <mxGeometry y="201" width="231" height="7.997120781892693" as="geometry" />
        </mxCell>
        <mxCell id="w13ybTUpAUzulzF94Kuo-261" value="+ AdminPage(): void" style="text;strokeColor=none;fillColor=none;align=left;verticalAlign=top;spacingLeft=4;spacingRight=4;overflow=hidden;rotatable=0;points=[[0,0.5],[1,0.5]];portConstraint=eastwest;fontFamily=Helvetica;fontSize=11;fontColor=default;labelBackgroundColor=none;" vertex="1" parent="w13ybTUpAUzulzF94Kuo-250">
          <mxGeometry y="208.9971207818927" width="231" height="25" as="geometry" />
        </mxCell>
        <mxCell id="w13ybTUpAUzulzF94Kuo-350" value="HomePage : UserControl" style="swimlane;fontStyle=1;childLayout=stackLayout;horizontal=1;startSize=26;horizontalStack=0;resizeParent=1;resizeParentMax=0;resizeLast=0;collapsible=0;marginBottom=0;fontFamily=Helvetica;fontSize=11;labelBackgroundColor=none;fillColor=#d5e8d4;strokeColor=#82b366;expand=1;" vertex="1" parent="w13ybTUpAUzulzF94Kuo-122">
          <mxGeometry x="416" y="327" width="188" height="172" as="geometry">
            <mxRectangle x="2210" y="-565" width="311" height="658" as="alternateBounds" />
          </mxGeometry>
        </mxCell>
        <mxCell id="w13ybTUpAUzulzF94Kuo-351" value="- txtEmail: TextBox" style="text;strokeColor=none;fillColor=none;align=left;verticalAlign=top;spacingLeft=4;spacingRight=4;overflow=hidden;rotatable=0;points=[[0,0.5],[1,0.5]];portConstraint=eastwest;fontFamily=Helvetica;fontSize=11;fontColor=default;labelBackgroundColor=none;aspect=fixed;" vertex="1" parent="w13ybTUpAUzulzF94Kuo-350">
          <mxGeometry y="26" width="188" height="20" as="geometry" />
        </mxCell>
        <mxCell id="w13ybTUpAUzulzF94Kuo-352" value="- txtNume: TextBox" style="text;strokeColor=none;fillColor=none;align=left;verticalAlign=top;spacingLeft=4;spacingRight=4;overflow=hidden;rotatable=0;points=[[0,0.5],[1,0.5]];portConstraint=eastwest;fontFamily=Helvetica;fontSize=11;fontColor=default;labelBackgroundColor=none;aspect=fixed;" vertex="1" parent="w13ybTUpAUzulzF94Kuo-350">
          <mxGeometry y="46" width="188" height="20" as="geometry" />
        </mxCell>
        <mxCell id="w13ybTUpAUzulzF94Kuo-353" value="- txtTelefon: TextBox" style="text;strokeColor=none;fillColor=none;align=left;verticalAlign=top;spacingLeft=4;spacingRight=4;overflow=hidden;rotatable=0;points=[[0,0.5],[1,0.5]];portConstraint=eastwest;fontFamily=Helvetica;fontSize=11;fontColor=default;labelBackgroundColor=none;aspect=fixed;" vertex="1" parent="w13ybTUpAUzulzF94Kuo-350">
          <mxGeometry y="66" width="188" height="20" as="geometry" />
        </mxCell>
        <mxCell id="w13ybTUpAUzulzF94Kuo-354" value="- cmbPrezentare: ComboBox" style="text;strokeColor=none;fillColor=none;align=left;verticalAlign=top;spacingLeft=4;spacingRight=4;overflow=hidden;rotatable=0;points=[[0,0.5],[1,0.5]];portConstraint=eastwest;fontFamily=Helvetica;fontSize=11;fontColor=default;labelBackgroundColor=none;aspect=fixed;" vertex="1" parent="w13ybTUpAUzulzF94Kuo-350">
          <mxGeometry y="86" width="188" height="20" as="geometry" />
        </mxCell>
        <mxCell id="w13ybTUpAUzulzF94Kuo-355" value="- cmbSectiune: ComboBox" style="text;strokeColor=none;fillColor=none;align=left;verticalAlign=top;spacingLeft=4;spacingRight=4;overflow=hidden;rotatable=0;points=[[0,0.5],[1,0.5]];portConstraint=eastwest;fontFamily=Helvetica;fontSize=11;fontColor=default;labelBackgroundColor=none;aspect=fixed;" vertex="1" parent="w13ybTUpAUzulzF94Kuo-350">
          <mxGeometry y="106" width="188" height="20" as="geometry" />
        </mxCell>
        <mxCell id="w13ybTUpAUzulzF94Kuo-356" value="- TabelConferinte: DataGrid" style="text;strokeColor=none;fillColor=none;align=left;verticalAlign=top;spacingLeft=4;spacingRight=4;overflow=hidden;rotatable=0;points=[[0,0.5],[1,0.5]];portConstraint=eastwest;fontFamily=Helvetica;fontSize=11;fontColor=default;labelBackgroundColor=none;autosize=1;" vertex="1" parent="w13ybTUpAUzulzF94Kuo-350">
          <mxGeometry y="126" width="188" height="20" as="geometry" />
        </mxCell>
        <mxCell id="w13ybTUpAUzulzF94Kuo-357" value="" style="line;strokeWidth=1;fillColor=none;align=left;verticalAlign=middle;spacingTop=-1;spacingLeft=3;spacingRight=3;rotatable=0;labelPosition=right;points=[];portConstraint=eastwest;fontFamily=Helvetica;fontSize=11;fontColor=default;labelBackgroundColor=none;aspect=fixed;" vertex="1" parent="w13ybTUpAUzulzF94Kuo-350">
          <mxGeometry y="146" width="188" height="1" as="geometry" />
        </mxCell>
        <mxCell id="w13ybTUpAUzulzF94Kuo-358" value="+ HomePage(): void" style="text;strokeColor=none;fillColor=none;align=left;verticalAlign=top;spacingLeft=4;spacingRight=4;overflow=hidden;rotatable=0;points=[[0,0.5],[1,0.5]];portConstraint=eastwest;fontFamily=Helvetica;fontSize=11;fontColor=default;labelBackgroundColor=none;aspect=fixed;" vertex="1" parent="w13ybTUpAUzulzF94Kuo-350">
          <mxGeometry y="147" width="188" height="25" as="geometry" />
        </mxCell>
        <mxCell id="w13ybTUpAUzulzF94Kuo-202" value="UtilizatorPage : Page, IUtilizatorGui" style="swimlane;fontStyle=1;childLayout=stackLayout;horizontal=1;startSize=26;horizontalStack=0;resizeParent=1;resizeParentMax=0;resizeLast=0;marginBottom=0;fontFamily=Helvetica;fontSize=11;labelBackgroundColor=none;fillColor=#d5e8d4;strokeColor=#82b366;collapsible=0;" vertex="1" parent="w13ybTUpAUzulzF94Kuo-122">
          <mxGeometry x="14" y="541" width="222" height="76.98200488682933" as="geometry">
            <mxRectangle x="-1006" y="-199" width="285" height="138" as="alternateBounds" />
          </mxGeometry>
        </mxCell>
        <mxCell id="w13ybTUpAUzulzF94Kuo-203" value="TabelConferinte: DataGrid" style="text;strokeColor=none;fillColor=none;align=left;verticalAlign=top;spacingLeft=4;spacingRight=4;overflow=hidden;rotatable=0;points=[[0,0.5],[1,0.5]];portConstraint=eastwest;fontFamily=Helvetica;fontSize=11;fontColor=default;labelBackgroundColor=none;" vertex="1" parent="w13ybTUpAUzulzF94Kuo-202">
          <mxGeometry y="26" width="222" height="24.991002443414665" as="geometry" />
        </mxCell>
        <mxCell id="w13ybTUpAUzulzF94Kuo-204" value="" style="line;strokeWidth=1;fillColor=none;align=left;verticalAlign=middle;spacingTop=-1;spacingLeft=3;spacingRight=3;rotatable=0;labelPosition=right;points=[];portConstraint=eastwest;fontFamily=Helvetica;fontSize=11;fontColor=default;labelBackgroundColor=none;" vertex="1" parent="w13ybTUpAUzulzF94Kuo-202">
          <mxGeometry y="50.991002443414665" width="222" height="1" as="geometry" />
        </mxCell>
        <mxCell id="w13ybTUpAUzulzF94Kuo-205" value="UtilizatorPage(): void" style="text;strokeColor=none;fillColor=none;align=left;verticalAlign=top;spacingLeft=4;spacingRight=4;overflow=hidden;rotatable=0;points=[[0,0.5],[1,0.5]];portConstraint=eastwest;fontFamily=Helvetica;fontSize=11;fontColor=default;labelBackgroundColor=none;" vertex="1" parent="w13ybTUpAUzulzF94Kuo-202">
          <mxGeometry y="51.991002443414665" width="222" height="24.991002443414665" as="geometry" />
        </mxCell>
        <mxCell id="w13ybTUpAUzulzF94Kuo-236" value="LoginPage : UserControl" style="swimlane;fontStyle=1;childLayout=stackLayout;horizontal=1;startSize=26;horizontalStack=0;resizeParent=1;resizeParentMax=0;resizeLast=0;collapsible=0;marginBottom=0;fontFamily=Helvetica;fontSize=11;labelBackgroundColor=none;fillColor=#d5e8d4;strokeColor=#82b366;" vertex="1" parent="w13ybTUpAUzulzF94Kuo-122">
          <mxGeometry x="416" y="541" width="208" height="103.97192762345375" as="geometry">
            <mxRectangle y="623" width="298" height="320" as="alternateBounds" />
          </mxGeometry>
        </mxCell>
        <mxCell id="w13ybTUpAUzulzF94Kuo-238" value="- loginType: string" style="text;strokeColor=none;fillColor=none;align=left;verticalAlign=top;spacingLeft=4;spacingRight=4;overflow=hidden;rotatable=0;points=[[0,0.5],[1,0.5]];portConstraint=eastwest;fontFamily=Helvetica;fontSize=11;fontColor=default;labelBackgroundColor=none;" vertex="1" parent="w13ybTUpAUzulzF94Kuo-236">
          <mxGeometry y="26" width="208" height="25.990642541151253" as="geometry" />
        </mxCell>
        <mxCell id="w13ybTUpAUzulzF94Kuo-239" value="- txtEmail: TextBox" style="text;strokeColor=none;fillColor=none;align=left;verticalAlign=top;spacingLeft=4;spacingRight=4;overflow=hidden;rotatable=0;points=[[0,0.5],[1,0.5]];portConstraint=eastwest;fontFamily=Helvetica;fontSize=11;fontColor=default;labelBackgroundColor=none;" vertex="1" parent="w13ybTUpAUzulzF94Kuo-236">
          <mxGeometry y="51.99064254115125" width="208" height="25.990642541151253" as="geometry" />
        </mxCell>
        <mxCell id="w13ybTUpAUzulzF94Kuo-240" value="- txtPassword: PasswordBox" style="text;strokeColor=none;fillColor=none;align=left;verticalAlign=top;spacingLeft=4;spacingRight=4;overflow=hidden;rotatable=0;points=[[0,0.5],[1,0.5]];portConstraint=eastwest;fontFamily=Helvetica;fontSize=11;fontColor=default;labelBackgroundColor=none;" vertex="1" parent="w13ybTUpAUzulzF94Kuo-236">
          <mxGeometry y="77.9812850823025" width="208" height="25.990642541151253" as="geometry" />
        </mxCell>
        <mxCell id="w13ybTUpAUzulzF94Kuo-121" value="ViewModel" parent="0" />
        <mxCell id="w13ybTUpAUzulzF94Kuo-362" value="VIEW MODEL" style="shape=folder;fontStyle=1;spacingTop=10;tabWidth=80;tabHeight=20;tabPosition=left;html=1;whiteSpace=wrap;verticalAlign=top;fontSize=25;fontFamily=Times New Roman;container=1;labelBackgroundColor=none;recursiveResize=0;movable=1;resizable=1;rotatable=1;deletable=1;editable=1;locked=0;connectable=1;gradientDirection=north;expand=1;collapsible=0;fillColor=#d5e8d4;strokeColor=#82b366;" vertex="1" parent="w13ybTUpAUzulzF94Kuo-121">
          <mxGeometry x="-276" y="-1096" width="813" height="706" as="geometry">
            <mxRectangle x="-800" y="-170" width="150" height="50" as="alternateBounds" />
          </mxGeometry>
        </mxCell>
        <mxCell id="w13ybTUpAUzulzF94Kuo-407" value="COMMANDS" style="shape=folder;fontStyle=1;spacingTop=10;tabWidth=80;tabHeight=20;tabPosition=left;html=1;whiteSpace=wrap;verticalAlign=top;fontSize=25;fontFamily=Times New Roman;container=1;labelBackgroundColor=none;recursiveResize=0;movable=1;resizable=1;rotatable=1;deletable=1;editable=1;locked=0;connectable=1;gradientDirection=north;expand=1;collapsible=0;fillColor=#e1d5e7;strokeColor=#9673a6;" vertex="1" parent="w13ybTUpAUzulzF94Kuo-362">
          <mxGeometry x="69" y="453" width="710" height="243" as="geometry">
            <mxRectangle x="-800" y="-170" width="150" height="50" as="alternateBounds" />
          </mxGeometry>
        </mxCell>
        <mxCell id="w13ybTUpAUzulzF94Kuo-408" value="AdminCommands" style="swimlane;fontStyle=1;childLayout=stackLayout;horizontal=1;startSize=26;horizontalStack=0;resizeParent=1;resizeParentMax=0;resizeLast=0;collapsible=1;marginBottom=0;fillColor=#f8cecc;strokeColor=#b85450;" vertex="1" parent="w13ybTUpAUzulzF94Kuo-407">
          <mxGeometry x="245.5" y="82" width="219" height="138" as="geometry" />
        </mxCell>
        <mxCell id="w13ybTUpAUzulzF94Kuo-409" value="-CanExecuteChanged: EventHandler" style="text;strokeColor=none;fillColor=none;align=left;verticalAlign=top;spacingLeft=4;spacingRight=4;overflow=hidden;rotatable=0;points=[[0,0.5],[1,0.5]];portConstraint=eastwest;" vertex="1" parent="w13ybTUpAUzulzF94Kuo-408">
          <mxGeometry y="26" width="219" height="26" as="geometry" />
        </mxCell>
        <mxCell id="w13ybTUpAUzulzF94Kuo-410" value="-action: Action" style="text;strokeColor=none;fillColor=none;align=left;verticalAlign=top;spacingLeft=4;spacingRight=4;overflow=hidden;rotatable=0;points=[[0,0.5],[1,0.5]];portConstraint=eastwest;" vertex="1" parent="w13ybTUpAUzulzF94Kuo-408">
          <mxGeometry y="52" width="219" height="26" as="geometry" />
        </mxCell>
        <mxCell id="w13ybTUpAUzulzF94Kuo-411" value="" style="line;strokeWidth=1;fillColor=none;align=left;verticalAlign=middle;spacingTop=-1;spacingLeft=3;spacingRight=3;rotatable=0;labelPosition=right;points=[];portConstraint=eastwest;" vertex="1" parent="w13ybTUpAUzulzF94Kuo-408">
          <mxGeometry y="78" width="219" height="8" as="geometry" />
        </mxCell>
        <mxCell id="w13ybTUpAUzulzF94Kuo-412" value="+CanExecute(object): bool" style="text;strokeColor=none;fillColor=none;align=left;verticalAlign=top;spacingLeft=4;spacingRight=4;overflow=hidden;rotatable=0;points=[[0,0.5],[1,0.5]];portConstraint=eastwest;" vertex="1" parent="w13ybTUpAUzulzF94Kuo-408">
          <mxGeometry y="86" width="219" height="26" as="geometry" />
        </mxCell>
        <mxCell id="w13ybTUpAUzulzF94Kuo-413" value="+Execute(object): void" style="text;strokeColor=none;fillColor=none;align=left;verticalAlign=top;spacingLeft=4;spacingRight=4;overflow=hidden;rotatable=0;points=[[0,0.5],[1,0.5]];portConstraint=eastwest;" vertex="1" parent="w13ybTUpAUzulzF94Kuo-408">
          <mxGeometry y="112" width="219" height="26" as="geometry" />
        </mxCell>
        <mxCell id="w13ybTUpAUzulzF94Kuo-414" value="OrganizatorCommands" style="swimlane;fontStyle=1;childLayout=stackLayout;horizontal=1;startSize=26;horizontalStack=0;resizeParent=1;resizeParentMax=0;resizeLast=0;collapsible=1;marginBottom=0;fillColor=#f8cecc;strokeColor=#b85450;" vertex="1" parent="w13ybTUpAUzulzF94Kuo-407">
          <mxGeometry x="11" y="82" width="219" height="138" as="geometry" />
        </mxCell>
        <mxCell id="w13ybTUpAUzulzF94Kuo-415" value="-CanExecuteChanged: EventHandler" style="text;strokeColor=none;fillColor=none;align=left;verticalAlign=top;spacingLeft=4;spacingRight=4;overflow=hidden;rotatable=0;points=[[0,0.5],[1,0.5]];portConstraint=eastwest;" vertex="1" parent="w13ybTUpAUzulzF94Kuo-414">
          <mxGeometry y="26" width="219" height="26" as="geometry" />
        </mxCell>
        <mxCell id="w13ybTUpAUzulzF94Kuo-416" value="-action: Action" style="text;strokeColor=none;fillColor=none;align=left;verticalAlign=top;spacingLeft=4;spacingRight=4;overflow=hidden;rotatable=0;points=[[0,0.5],[1,0.5]];portConstraint=eastwest;" vertex="1" parent="w13ybTUpAUzulzF94Kuo-414">
          <mxGeometry y="52" width="219" height="26" as="geometry" />
        </mxCell>
        <mxCell id="w13ybTUpAUzulzF94Kuo-417" value="" style="line;strokeWidth=1;fillColor=none;align=left;verticalAlign=middle;spacingTop=-1;spacingLeft=3;spacingRight=3;rotatable=0;labelPosition=right;points=[];portConstraint=eastwest;" vertex="1" parent="w13ybTUpAUzulzF94Kuo-414">
          <mxGeometry y="78" width="219" height="8" as="geometry" />
        </mxCell>
        <mxCell id="w13ybTUpAUzulzF94Kuo-418" value="+CanExecute(object): bool" style="text;strokeColor=none;fillColor=none;align=left;verticalAlign=top;spacingLeft=4;spacingRight=4;overflow=hidden;rotatable=0;points=[[0,0.5],[1,0.5]];portConstraint=eastwest;" vertex="1" parent="w13ybTUpAUzulzF94Kuo-414">
          <mxGeometry y="86" width="219" height="26" as="geometry" />
        </mxCell>
        <mxCell id="w13ybTUpAUzulzF94Kuo-419" value="+Execute(object): void" style="text;strokeColor=none;fillColor=none;align=left;verticalAlign=top;spacingLeft=4;spacingRight=4;overflow=hidden;rotatable=0;points=[[0,0.5],[1,0.5]];portConstraint=eastwest;" vertex="1" parent="w13ybTUpAUzulzF94Kuo-414">
          <mxGeometry y="112" width="219" height="26" as="geometry" />
        </mxCell>
        <mxCell id="w13ybTUpAUzulzF94Kuo-420" value="HomeCommands" style="swimlane;fontStyle=1;childLayout=stackLayout;horizontal=1;startSize=26;horizontalStack=0;resizeParent=1;resizeParentMax=0;resizeLast=0;collapsible=1;marginBottom=0;fillColor=#f8cecc;strokeColor=#b85450;" vertex="1" parent="w13ybTUpAUzulzF94Kuo-407">
          <mxGeometry x="480" y="82" width="219" height="138" as="geometry" />
        </mxCell>
        <mxCell id="w13ybTUpAUzulzF94Kuo-421" value="-CanExecuteChanged: EventHandler" style="text;strokeColor=none;fillColor=none;align=left;verticalAlign=top;spacingLeft=4;spacingRight=4;overflow=hidden;rotatable=0;points=[[0,0.5],[1,0.5]];portConstraint=eastwest;" vertex="1" parent="w13ybTUpAUzulzF94Kuo-420">
          <mxGeometry y="26" width="219" height="26" as="geometry" />
        </mxCell>
        <mxCell id="w13ybTUpAUzulzF94Kuo-422" value="-action: Action" style="text;strokeColor=none;fillColor=none;align=left;verticalAlign=top;spacingLeft=4;spacingRight=4;overflow=hidden;rotatable=0;points=[[0,0.5],[1,0.5]];portConstraint=eastwest;" vertex="1" parent="w13ybTUpAUzulzF94Kuo-420">
          <mxGeometry y="52" width="219" height="26" as="geometry" />
        </mxCell>
        <mxCell id="w13ybTUpAUzulzF94Kuo-423" value="" style="line;strokeWidth=1;fillColor=none;align=left;verticalAlign=middle;spacingTop=-1;spacingLeft=3;spacingRight=3;rotatable=0;labelPosition=right;points=[];portConstraint=eastwest;" vertex="1" parent="w13ybTUpAUzulzF94Kuo-420">
          <mxGeometry y="78" width="219" height="8" as="geometry" />
        </mxCell>
        <mxCell id="w13ybTUpAUzulzF94Kuo-424" value="+CanExecute(object): bool" style="text;strokeColor=none;fillColor=none;align=left;verticalAlign=top;spacingLeft=4;spacingRight=4;overflow=hidden;rotatable=0;points=[[0,0.5],[1,0.5]];portConstraint=eastwest;" vertex="1" parent="w13ybTUpAUzulzF94Kuo-420">
          <mxGeometry y="86" width="219" height="26" as="geometry" />
        </mxCell>
        <mxCell id="w13ybTUpAUzulzF94Kuo-425" value="+Execute(object): void" style="text;strokeColor=none;fillColor=none;align=left;verticalAlign=top;spacingLeft=4;spacingRight=4;overflow=hidden;rotatable=0;points=[[0,0.5],[1,0.5]];portConstraint=eastwest;" vertex="1" parent="w13ybTUpAUzulzF94Kuo-420">
          <mxGeometry y="112" width="219" height="26" as="geometry" />
        </mxCell>
        <mxCell id="w13ybTUpAUzulzF94Kuo-450" value="UtilizatorVM" style="swimlane;fontStyle=1;childLayout=stackLayout;horizontal=1;startSize=26;horizontalStack=0;resizeParent=1;resizeParentMax=0;resizeLast=0;collapsible=1;marginBottom=0;fillColor=#f8cecc;strokeColor=#b85450;" vertex="1" collapsed="1" parent="w13ybTUpAUzulzF94Kuo-362">
          <mxGeometry x="150" y="174" width="100" height="26" as="geometry">
            <mxRectangle x="450" y="-1576" width="263" height="372" as="alternateBounds" />
          </mxGeometry>
        </mxCell>
        <mxCell id="w13ybTUpAUzulzF94Kuo-451" value="-prezentareRepository: PrezentareRepository" style="text;strokeColor=none;fillColor=none;align=left;verticalAlign=top;spacingLeft=4;spacingRight=4;overflow=hidden;rotatable=0;points=[[0,0.5],[1,0.5]];portConstraint=eastwest;" vertex="1" parent="w13ybTUpAUzulzF94Kuo-450">
          <mxGeometry y="26" width="263" height="26" as="geometry" />
        </mxCell>
        <mxCell id="w13ybTUpAUzulzF94Kuo-452" value="-conferintaRepository: ConferintaRepository" style="text;strokeColor=none;fillColor=none;align=left;verticalAlign=top;spacingLeft=4;spacingRight=4;overflow=hidden;rotatable=0;points=[[0,0.5],[1,0.5]];portConstraint=eastwest;" vertex="1" parent="w13ybTUpAUzulzF94Kuo-450">
          <mxGeometry y="52" width="263" height="26" as="geometry" />
        </mxCell>
        <mxCell id="w13ybTUpAUzulzF94Kuo-453" value="-listaprezentari: List&lt;Prezentare&gt;" style="text;strokeColor=none;fillColor=none;align=left;verticalAlign=top;spacingLeft=4;spacingRight=4;overflow=hidden;rotatable=0;points=[[0,0.5],[1,0.5]];portConstraint=eastwest;" vertex="1" parent="w13ybTUpAUzulzF94Kuo-450">
          <mxGeometry y="78" width="263" height="26" as="geometry" />
        </mxCell>
        <mxCell id="w13ybTUpAUzulzF94Kuo-454" value="-listaConferinte: List&lt;Conferinta&gt;" style="text;strokeColor=none;fillColor=none;align=left;verticalAlign=top;spacingLeft=4;spacingRight=4;overflow=hidden;rotatable=0;points=[[0,0.5],[1,0.5]];portConstraint=eastwest;" vertex="1" parent="w13ybTUpAUzulzF94Kuo-450">
          <mxGeometry y="104" width="263" height="26" as="geometry" />
        </mxCell>
        <mxCell id="w13ybTUpAUzulzF94Kuo-455" value="-listaCompleta: Object?" style="text;strokeColor=none;fillColor=none;align=left;verticalAlign=top;spacingLeft=4;spacingRight=4;overflow=hidden;rotatable=0;points=[[0,0.5],[1,0.5]];portConstraint=eastwest;" vertex="1" parent="w13ybTUpAUzulzF94Kuo-450">
          <mxGeometry y="130" width="263" height="26" as="geometry" />
        </mxCell>
        <mxCell id="w13ybTUpAUzulzF94Kuo-456" value="" style="line;strokeWidth=1;fillColor=none;align=left;verticalAlign=middle;spacingTop=-1;spacingLeft=3;spacingRight=3;rotatable=0;labelPosition=right;points=[];portConstraint=eastwest;" vertex="1" parent="w13ybTUpAUzulzF94Kuo-450">
          <mxGeometry y="156" width="263" height="8" as="geometry" />
        </mxCell>
        <mxCell id="w13ybTUpAUzulzF94Kuo-457" value="+UtilizatorVM()" style="text;strokeColor=none;fillColor=none;align=left;verticalAlign=top;spacingLeft=4;spacingRight=4;overflow=hidden;rotatable=0;points=[[0,0.5],[1,0.5]];portConstraint=eastwest;" vertex="1" parent="w13ybTUpAUzulzF94Kuo-450">
          <mxGeometry y="164" width="263" height="26" as="geometry" />
        </mxCell>
        <mxCell id="w13ybTUpAUzulzF94Kuo-458" value="+GetListaPrezentari(): List&lt;Prezentare&gt;" style="text;strokeColor=none;fillColor=none;align=left;verticalAlign=top;spacingLeft=4;spacingRight=4;overflow=hidden;rotatable=0;points=[[0,0.5],[1,0.5]];portConstraint=eastwest;" vertex="1" parent="w13ybTUpAUzulzF94Kuo-450">
          <mxGeometry y="190" width="263" height="26" as="geometry" />
        </mxCell>
        <mxCell id="w13ybTUpAUzulzF94Kuo-459" value="+SetListaPrezentari(List&lt;Prezentare&gt;): void" style="text;strokeColor=none;fillColor=none;align=left;verticalAlign=top;spacingLeft=4;spacingRight=4;overflow=hidden;rotatable=0;points=[[0,0.5],[1,0.5]];portConstraint=eastwest;" vertex="1" parent="w13ybTUpAUzulzF94Kuo-450">
          <mxGeometry y="216" width="263" height="26" as="geometry" />
        </mxCell>
        <mxCell id="w13ybTUpAUzulzF94Kuo-460" value="+GetListaConferinte(): List&lt;Conferinta&gt;" style="text;strokeColor=none;fillColor=none;align=left;verticalAlign=top;spacingLeft=4;spacingRight=4;overflow=hidden;rotatable=0;points=[[0,0.5],[1,0.5]];portConstraint=eastwest;" vertex="1" parent="w13ybTUpAUzulzF94Kuo-450">
          <mxGeometry y="242" width="263" height="26" as="geometry" />
        </mxCell>
        <mxCell id="w13ybTUpAUzulzF94Kuo-461" value="+SetListaConferinte(List&lt;Conferinta&gt;): void" style="text;strokeColor=none;fillColor=none;align=left;verticalAlign=top;spacingLeft=4;spacingRight=4;overflow=hidden;rotatable=0;points=[[0,0.5],[1,0.5]];portConstraint=eastwest;" vertex="1" parent="w13ybTUpAUzulzF94Kuo-450">
          <mxGeometry y="268" width="263" height="26" as="geometry" />
        </mxCell>
        <mxCell id="w13ybTUpAUzulzF94Kuo-462" value="+GetListaCompleta(): Object?" style="text;strokeColor=none;fillColor=none;align=left;verticalAlign=top;spacingLeft=4;spacingRight=4;overflow=hidden;rotatable=0;points=[[0,0.5],[1,0.5]];portConstraint=eastwest;" vertex="1" parent="w13ybTUpAUzulzF94Kuo-450">
          <mxGeometry y="294" width="263" height="26" as="geometry" />
        </mxCell>
        <mxCell id="w13ybTUpAUzulzF94Kuo-463" value="+SetListaCompleta(Object?): void" style="text;strokeColor=none;fillColor=none;align=left;verticalAlign=top;spacingLeft=4;spacingRight=4;overflow=hidden;rotatable=0;points=[[0,0.5],[1,0.5]];portConstraint=eastwest;" vertex="1" parent="w13ybTUpAUzulzF94Kuo-450">
          <mxGeometry y="320" width="263" height="26" as="geometry" />
        </mxCell>
        <mxCell id="w13ybTUpAUzulzF94Kuo-464" value="+FillListaCompleta(): void" style="text;strokeColor=none;fillColor=none;align=left;verticalAlign=top;spacingLeft=4;spacingRight=4;overflow=hidden;rotatable=0;points=[[0,0.5],[1,0.5]];portConstraint=eastwest;" vertex="1" parent="w13ybTUpAUzulzF94Kuo-450">
          <mxGeometry y="346" width="263" height="26" as="geometry" />
        </mxCell>
        <mxCell id="w13ybTUpAUzulzF94Kuo-465" value="HomeVM" style="swimlane;fontStyle=1;childLayout=stackLayout;horizontal=1;startSize=26;horizontalStack=0;resizeParent=1;resizeParentMax=0;resizeLast=0;collapsible=1;marginBottom=0;fillColor=#f8cecc;strokeColor=#b85450;" vertex="1" collapsed="1" parent="w13ybTUpAUzulzF94Kuo-362">
          <mxGeometry x="150" y="124" width="85" height="26" as="geometry">
            <mxRectangle x="625" y="-1687" width="295" height="684" as="alternateBounds" />
          </mxGeometry>
        </mxCell>
        <mxCell id="w13ybTUpAUzulzF94Kuo-466" value="-prezentareRepository: PrezentareRepository" style="text;strokeColor=none;fillColor=none;align=left;verticalAlign=top;spacingLeft=4;spacingRight=4;overflow=hidden;rotatable=0;points=[[0,0.5],[1,0.5]];portConstraint=eastwest;" vertex="1" parent="w13ybTUpAUzulzF94Kuo-465">
          <mxGeometry y="26" width="295" height="26" as="geometry" />
        </mxCell>
        <mxCell id="w13ybTUpAUzulzF94Kuo-467" value="-participantiRepository: ParticipantiRepository" style="text;strokeColor=none;fillColor=none;align=left;verticalAlign=top;spacingLeft=4;spacingRight=4;overflow=hidden;rotatable=0;points=[[0,0.5],[1,0.5]];portConstraint=eastwest;" vertex="1" parent="w13ybTUpAUzulzF94Kuo-465">
          <mxGeometry y="52" width="295" height="26" as="geometry" />
        </mxCell>
        <mxCell id="w13ybTUpAUzulzF94Kuo-468" value="-participant: Participant" style="text;strokeColor=none;fillColor=none;align=left;verticalAlign=top;spacingLeft=4;spacingRight=4;overflow=hidden;rotatable=0;points=[[0,0.5],[1,0.5]];portConstraint=eastwest;" vertex="1" parent="w13ybTUpAUzulzF94Kuo-465">
          <mxGeometry y="78" width="295" height="26" as="geometry" />
        </mxCell>
        <mxCell id="w13ybTUpAUzulzF94Kuo-469" value="-listaprezentari: List&lt;Prezentare&gt;" style="text;strokeColor=none;fillColor=none;align=left;verticalAlign=top;spacingLeft=4;spacingRight=4;overflow=hidden;rotatable=0;points=[[0,0.5],[1,0.5]];portConstraint=eastwest;" vertex="1" parent="w13ybTUpAUzulzF94Kuo-465">
          <mxGeometry y="104" width="295" height="26" as="geometry" />
        </mxCell>
        <mxCell id="w13ybTUpAUzulzF94Kuo-470" value="-listaSectiuni: List&lt;Sectiune&gt;" style="text;strokeColor=none;fillColor=none;align=left;verticalAlign=top;spacingLeft=4;spacingRight=4;overflow=hidden;rotatable=0;points=[[0,0.5],[1,0.5]];portConstraint=eastwest;" vertex="1" parent="w13ybTUpAUzulzF94Kuo-465">
          <mxGeometry y="130" width="295" height="26" as="geometry" />
        </mxCell>
        <mxCell id="w13ybTUpAUzulzF94Kuo-471" value="-sectiuneSelectata: Sectiune" style="text;strokeColor=none;fillColor=none;align=left;verticalAlign=top;spacingLeft=4;spacingRight=4;overflow=hidden;rotatable=0;points=[[0,0.5],[1,0.5]];portConstraint=eastwest;" vertex="1" parent="w13ybTUpAUzulzF94Kuo-465">
          <mxGeometry y="156" width="295" height="26" as="geometry" />
        </mxCell>
        <mxCell id="w13ybTUpAUzulzF94Kuo-472" value="-comboPrezentari: Dictionary&lt;int, String&gt;" style="text;strokeColor=none;fillColor=none;align=left;verticalAlign=top;spacingLeft=4;spacingRight=4;overflow=hidden;rotatable=0;points=[[0,0.5],[1,0.5]];portConstraint=eastwest;" vertex="1" parent="w13ybTUpAUzulzF94Kuo-465">
          <mxGeometry y="182" width="295" height="26" as="geometry" />
        </mxCell>
        <mxCell id="w13ybTUpAUzulzF94Kuo-473" value="-searchPrezentare: HomeCommands" style="text;strokeColor=none;fillColor=none;align=left;verticalAlign=top;spacingLeft=4;spacingRight=4;overflow=hidden;rotatable=0;points=[[0,0.5],[1,0.5]];portConstraint=eastwest;" vertex="1" parent="w13ybTUpAUzulzF94Kuo-465">
          <mxGeometry y="208" width="295" height="26" as="geometry" />
        </mxCell>
        <mxCell id="w13ybTUpAUzulzF94Kuo-474" value="-createParticipant: HomeCommands" style="text;strokeColor=none;fillColor=none;align=left;verticalAlign=top;spacingLeft=4;spacingRight=4;overflow=hidden;rotatable=0;points=[[0,0.5],[1,0.5]];portConstraint=eastwest;" vertex="1" parent="w13ybTUpAUzulzF94Kuo-465">
          <mxGeometry y="234" width="295" height="26" as="geometry" />
        </mxCell>
        <mxCell id="w13ybTUpAUzulzF94Kuo-475" value="" style="line;strokeWidth=1;fillColor=none;align=left;verticalAlign=middle;spacingTop=-1;spacingLeft=3;spacingRight=3;rotatable=0;labelPosition=right;points=[];portConstraint=eastwest;" vertex="1" parent="w13ybTUpAUzulzF94Kuo-465">
          <mxGeometry y="260" width="295" height="8" as="geometry" />
        </mxCell>
        <mxCell id="w13ybTUpAUzulzF94Kuo-476" value="+HomeVM()" style="text;strokeColor=none;fillColor=none;align=left;verticalAlign=top;spacingLeft=4;spacingRight=4;overflow=hidden;rotatable=0;points=[[0,0.5],[1,0.5]];portConstraint=eastwest;" vertex="1" parent="w13ybTUpAUzulzF94Kuo-465">
          <mxGeometry y="268" width="295" height="26" as="geometry" />
        </mxCell>
        <mxCell id="w13ybTUpAUzulzF94Kuo-477" value="+GetListaPrezentari(): List&lt;Prezentare&gt;" style="text;strokeColor=none;fillColor=none;align=left;verticalAlign=top;spacingLeft=4;spacingRight=4;overflow=hidden;rotatable=0;points=[[0,0.5],[1,0.5]];portConstraint=eastwest;" vertex="1" parent="w13ybTUpAUzulzF94Kuo-465">
          <mxGeometry y="294" width="295" height="26" as="geometry" />
        </mxCell>
        <mxCell id="w13ybTUpAUzulzF94Kuo-478" value="+SetListaPrezentari(List&lt;Prezentare&gt;): void" style="text;strokeColor=none;fillColor=none;align=left;verticalAlign=top;spacingLeft=4;spacingRight=4;overflow=hidden;rotatable=0;points=[[0,0.5],[1,0.5]];portConstraint=eastwest;" vertex="1" parent="w13ybTUpAUzulzF94Kuo-465">
          <mxGeometry y="320" width="295" height="26" as="geometry" />
        </mxCell>
        <mxCell id="w13ybTUpAUzulzF94Kuo-479" value="+GetListaSectiuni(): List&lt;Sectiune&gt;" style="text;strokeColor=none;fillColor=none;align=left;verticalAlign=top;spacingLeft=4;spacingRight=4;overflow=hidden;rotatable=0;points=[[0,0.5],[1,0.5]];portConstraint=eastwest;" vertex="1" parent="w13ybTUpAUzulzF94Kuo-465">
          <mxGeometry y="346" width="295" height="26" as="geometry" />
        </mxCell>
        <mxCell id="w13ybTUpAUzulzF94Kuo-480" value="+GetSectiuneSelectata(): Sectiune" style="text;strokeColor=none;fillColor=none;align=left;verticalAlign=top;spacingLeft=4;spacingRight=4;overflow=hidden;rotatable=0;points=[[0,0.5],[1,0.5]];portConstraint=eastwest;" vertex="1" parent="w13ybTUpAUzulzF94Kuo-465">
          <mxGeometry y="372" width="295" height="26" as="geometry" />
        </mxCell>
        <mxCell id="w13ybTUpAUzulzF94Kuo-481" value="+SetSectiuneSelectata(Sectiune): void" style="text;strokeColor=none;fillColor=none;align=left;verticalAlign=top;spacingLeft=4;spacingRight=4;overflow=hidden;rotatable=0;points=[[0,0.5],[1,0.5]];portConstraint=eastwest;" vertex="1" parent="w13ybTUpAUzulzF94Kuo-465">
          <mxGeometry y="398" width="295" height="26" as="geometry" />
        </mxCell>
        <mxCell id="w13ybTUpAUzulzF94Kuo-482" value="+GetParticipant(): Participant" style="text;strokeColor=none;fillColor=none;align=left;verticalAlign=top;spacingLeft=4;spacingRight=4;overflow=hidden;rotatable=0;points=[[0,0.5],[1,0.5]];portConstraint=eastwest;" vertex="1" parent="w13ybTUpAUzulzF94Kuo-465">
          <mxGeometry y="424" width="295" height="26" as="geometry" />
        </mxCell>
        <mxCell id="w13ybTUpAUzulzF94Kuo-483" value="+SetParticipant(Participant): void" style="text;strokeColor=none;fillColor=none;align=left;verticalAlign=top;spacingLeft=4;spacingRight=4;overflow=hidden;rotatable=0;points=[[0,0.5],[1,0.5]];portConstraint=eastwest;" vertex="1" parent="w13ybTUpAUzulzF94Kuo-465">
          <mxGeometry y="450" width="295" height="26" as="geometry" />
        </mxCell>
        <mxCell id="w13ybTUpAUzulzF94Kuo-484" value="+GetComboPrezentari(): Dictionary&lt;int, String&gt;" style="text;strokeColor=none;fillColor=none;align=left;verticalAlign=top;spacingLeft=4;spacingRight=4;overflow=hidden;rotatable=0;points=[[0,0.5],[1,0.5]];portConstraint=eastwest;" vertex="1" parent="w13ybTUpAUzulzF94Kuo-465">
          <mxGeometry y="476" width="295" height="26" as="geometry" />
        </mxCell>
        <mxCell id="w13ybTUpAUzulzF94Kuo-485" value="+SetComboPrezentari(Dictionary&lt;int, String&gt;): void" style="text;strokeColor=none;fillColor=none;align=left;verticalAlign=top;spacingLeft=4;spacingRight=4;overflow=hidden;rotatable=0;points=[[0,0.5],[1,0.5]];portConstraint=eastwest;" vertex="1" parent="w13ybTUpAUzulzF94Kuo-465">
          <mxGeometry y="502" width="295" height="26" as="geometry" />
        </mxCell>
        <mxCell id="w13ybTUpAUzulzF94Kuo-486" value="+GetSearchPrezentare(): HomeCommands" style="text;strokeColor=none;fillColor=none;align=left;verticalAlign=top;spacingLeft=4;spacingRight=4;overflow=hidden;rotatable=0;points=[[0,0.5],[1,0.5]];portConstraint=eastwest;" vertex="1" parent="w13ybTUpAUzulzF94Kuo-465">
          <mxGeometry y="528" width="295" height="26" as="geometry" />
        </mxCell>
        <mxCell id="w13ybTUpAUzulzF94Kuo-487" value="+GetCreateParticipant(): HomeCommands" style="text;strokeColor=none;fillColor=none;align=left;verticalAlign=top;spacingLeft=4;spacingRight=4;overflow=hidden;rotatable=0;points=[[0,0.5],[1,0.5]];portConstraint=eastwest;" vertex="1" parent="w13ybTUpAUzulzF94Kuo-465">
          <mxGeometry y="554" width="295" height="26" as="geometry" />
        </mxCell>
        <mxCell id="w13ybTUpAUzulzF94Kuo-488" value="+Create(): void" style="text;strokeColor=none;fillColor=none;align=left;verticalAlign=top;spacingLeft=4;spacingRight=4;overflow=hidden;rotatable=0;points=[[0,0.5],[1,0.5]];portConstraint=eastwest;" vertex="1" parent="w13ybTUpAUzulzF94Kuo-465">
          <mxGeometry y="580" width="295" height="26" as="geometry" />
        </mxCell>
        <mxCell id="w13ybTUpAUzulzF94Kuo-489" value="+Read(): void" style="text;strokeColor=none;fillColor=none;align=left;verticalAlign=top;spacingLeft=4;spacingRight=4;overflow=hidden;rotatable=0;points=[[0,0.5],[1,0.5]];portConstraint=eastwest;" vertex="1" parent="w13ybTUpAUzulzF94Kuo-465">
          <mxGeometry y="606" width="295" height="26" as="geometry" />
        </mxCell>
        <mxCell id="w13ybTUpAUzulzF94Kuo-490" value="+Search(): void" style="text;strokeColor=none;fillColor=none;align=left;verticalAlign=top;spacingLeft=4;spacingRight=4;overflow=hidden;rotatable=0;points=[[0,0.5],[1,0.5]];portConstraint=eastwest;" vertex="1" parent="w13ybTUpAUzulzF94Kuo-465">
          <mxGeometry y="632" width="295" height="26" as="geometry" />
        </mxCell>
        <mxCell id="w13ybTUpAUzulzF94Kuo-491" value="+FillComboPrezentari(): void" style="text;strokeColor=none;fillColor=none;align=left;verticalAlign=top;spacingLeft=4;spacingRight=4;overflow=hidden;rotatable=0;points=[[0,0.5],[1,0.5]];portConstraint=eastwest;" vertex="1" parent="w13ybTUpAUzulzF94Kuo-465">
          <mxGeometry y="658" width="295" height="26" as="geometry" />
        </mxCell>
        <mxCell id="w13ybTUpAUzulzF94Kuo-492" value="OrganizatorVM" style="swimlane;fontStyle=1;childLayout=stackLayout;horizontal=1;startSize=26;horizontalStack=0;resizeParent=1;resizeParentMax=0;resizeLast=0;collapsible=1;marginBottom=0;fillColor=#f8cecc;strokeColor=#b85450;" vertex="1" collapsed="1" parent="w13ybTUpAUzulzF94Kuo-362">
          <mxGeometry x="150" y="217" width="116" height="26" as="geometry">
            <mxRectangle x="825" y="-1687" width="340" height="1802" as="alternateBounds" />
          </mxGeometry>
        </mxCell>
        <mxCell id="w13ybTUpAUzulzF94Kuo-493" value="-participantRepository: ParticipantiRepository" style="text;strokeColor=none;fillColor=none;align=left;verticalAlign=top;spacingLeft=4;spacingRight=4;overflow=hidden;rotatable=0;points=[[0,0.5],[1,0.5]];portConstraint=eastwest;" vertex="1" parent="w13ybTUpAUzulzF94Kuo-492">
          <mxGeometry y="26" width="340" height="26" as="geometry" />
        </mxCell>
        <mxCell id="w13ybTUpAUzulzF94Kuo-494" value="-prezentareRepository: PrezentareRepository" style="text;strokeColor=none;fillColor=none;align=left;verticalAlign=top;spacingLeft=4;spacingRight=4;overflow=hidden;rotatable=0;points=[[0,0.5],[1,0.5]];portConstraint=eastwest;" vertex="1" parent="w13ybTUpAUzulzF94Kuo-492">
          <mxGeometry y="52" width="340" height="26" as="geometry" />
        </mxCell>
        <mxCell id="w13ybTUpAUzulzF94Kuo-495" value="-listaParticipanti: List&lt;Participant&gt;" style="text;strokeColor=none;fillColor=none;align=left;verticalAlign=top;spacingLeft=4;spacingRight=4;overflow=hidden;rotatable=0;points=[[0,0.5],[1,0.5]];portConstraint=eastwest;" vertex="1" parent="w13ybTUpAUzulzF94Kuo-492">
          <mxGeometry y="78" width="340" height="26" as="geometry" />
        </mxCell>
        <mxCell id="w13ybTUpAUzulzF94Kuo-496" value="-listaPrezentari: List&lt;Prezentare&gt;" style="text;strokeColor=none;fillColor=none;align=left;verticalAlign=top;spacingLeft=4;spacingRight=4;overflow=hidden;rotatable=0;points=[[0,0.5],[1,0.5]];portConstraint=eastwest;" vertex="1" parent="w13ybTUpAUzulzF94Kuo-492">
          <mxGeometry y="104" width="340" height="26" as="geometry" />
        </mxCell>
        <mxCell id="w13ybTUpAUzulzF94Kuo-497" value="-participantSelectat: Participant" style="text;strokeColor=none;fillColor=none;align=left;verticalAlign=top;spacingLeft=4;spacingRight=4;overflow=hidden;rotatable=0;points=[[0,0.5],[1,0.5]];portConstraint=eastwest;" vertex="1" parent="w13ybTUpAUzulzF94Kuo-492">
          <mxGeometry y="130" width="340" height="26" as="geometry" />
        </mxCell>
        <mxCell id="w13ybTUpAUzulzF94Kuo-498" value="-prezentareSelectata: Prezentare" style="text;strokeColor=none;fillColor=none;align=left;verticalAlign=top;spacingLeft=4;spacingRight=4;overflow=hidden;rotatable=0;points=[[0,0.5],[1,0.5]];portConstraint=eastwest;" vertex="1" parent="w13ybTUpAUzulzF94Kuo-492">
          <mxGeometry y="156" width="340" height="26" as="geometry" />
        </mxCell>
        <mxCell id="w13ybTUpAUzulzF94Kuo-499" value="-listaSectiuni: List&lt;Sectiune&gt;" style="text;strokeColor=none;fillColor=none;align=left;verticalAlign=top;spacingLeft=4;spacingRight=4;overflow=hidden;rotatable=0;points=[[0,0.5],[1,0.5]];portConstraint=eastwest;" vertex="1" parent="w13ybTUpAUzulzF94Kuo-492">
          <mxGeometry y="182" width="340" height="26" as="geometry" />
        </mxCell>
        <mxCell id="w13ybTUpAUzulzF94Kuo-500" value="-fileFormats: List&lt;String&gt;" style="text;strokeColor=none;fillColor=none;align=left;verticalAlign=top;spacingLeft=4;spacingRight=4;overflow=hidden;rotatable=0;points=[[0,0.5],[1,0.5]];portConstraint=eastwest;" vertex="1" parent="w13ybTUpAUzulzF94Kuo-492">
          <mxGeometry y="208" width="340" height="26" as="geometry" />
        </mxCell>
        <mxCell id="w13ybTUpAUzulzF94Kuo-501" value="-selectedFileFormat: String" style="text;strokeColor=none;fillColor=none;align=left;verticalAlign=top;spacingLeft=4;spacingRight=4;overflow=hidden;rotatable=0;points=[[0,0.5],[1,0.5]];portConstraint=eastwest;" vertex="1" parent="w13ybTUpAUzulzF94Kuo-492">
          <mxGeometry y="234" width="340" height="26" as="geometry" />
        </mxCell>
        <mxCell id="w13ybTUpAUzulzF94Kuo-502" value="-sectiuneSelectataforParticipanti: Sectiune" style="text;strokeColor=none;fillColor=none;align=left;verticalAlign=top;spacingLeft=4;spacingRight=4;overflow=hidden;rotatable=0;points=[[0,0.5],[1,0.5]];portConstraint=eastwest;" vertex="1" parent="w13ybTUpAUzulzF94Kuo-492">
          <mxGeometry y="260" width="340" height="26" as="geometry" />
        </mxCell>
        <mxCell id="w13ybTUpAUzulzF94Kuo-503" value="-sectiuneSelectataforPrezentari: Sectiune" style="text;strokeColor=none;fillColor=none;align=left;verticalAlign=top;spacingLeft=4;spacingRight=4;overflow=hidden;rotatable=0;points=[[0,0.5],[1,0.5]];portConstraint=eastwest;" vertex="1" parent="w13ybTUpAUzulzF94Kuo-492">
          <mxGeometry y="286" width="340" height="26" as="geometry" />
        </mxCell>
        <mxCell id="w13ybTUpAUzulzF94Kuo-504" value="-createParticipantCommand: OrganizatorCommands" style="text;strokeColor=none;fillColor=none;align=left;verticalAlign=top;spacingLeft=4;spacingRight=4;overflow=hidden;rotatable=0;points=[[0,0.5],[1,0.5]];portConstraint=eastwest;" vertex="1" parent="w13ybTUpAUzulzF94Kuo-492">
          <mxGeometry y="312" width="340" height="26" as="geometry" />
        </mxCell>
        <mxCell id="w13ybTUpAUzulzF94Kuo-505" value="-updateParticipantCommand: OrganizatorCommands" style="text;strokeColor=none;fillColor=none;align=left;verticalAlign=top;spacingLeft=4;spacingRight=4;overflow=hidden;rotatable=0;points=[[0,0.5],[1,0.5]];portConstraint=eastwest;" vertex="1" parent="w13ybTUpAUzulzF94Kuo-492">
          <mxGeometry y="338" width="340" height="26" as="geometry" />
        </mxCell>
        <mxCell id="w13ybTUpAUzulzF94Kuo-506" value="-deleteParticipantCommand: OrganizatorCommands" style="text;strokeColor=none;fillColor=none;align=left;verticalAlign=top;spacingLeft=4;spacingRight=4;overflow=hidden;rotatable=0;points=[[0,0.5],[1,0.5]];portConstraint=eastwest;" vertex="1" parent="w13ybTUpAUzulzF94Kuo-492">
          <mxGeometry y="364" width="340" height="26" as="geometry" />
        </mxCell>
        <mxCell id="w13ybTUpAUzulzF94Kuo-507" value="-filterParticipanti: OrganizatorCommands" style="text;strokeColor=none;fillColor=none;align=left;verticalAlign=top;spacingLeft=4;spacingRight=4;overflow=hidden;rotatable=0;points=[[0,0.5],[1,0.5]];portConstraint=eastwest;" vertex="1" parent="w13ybTUpAUzulzF94Kuo-492">
          <mxGeometry y="390" width="340" height="26" as="geometry" />
        </mxCell>
        <mxCell id="w13ybTUpAUzulzF94Kuo-508" value="-acceptParticipantCommand: OrganizatorCommands" style="text;strokeColor=none;fillColor=none;align=left;verticalAlign=top;spacingLeft=4;spacingRight=4;overflow=hidden;rotatable=0;points=[[0,0.5],[1,0.5]];portConstraint=eastwest;" vertex="1" parent="w13ybTUpAUzulzF94Kuo-492">
          <mxGeometry y="416" width="340" height="26" as="geometry" />
        </mxCell>
        <mxCell id="w13ybTUpAUzulzF94Kuo-509" value="-rejectParticipantCommand: OrganizatorCommands" style="text;strokeColor=none;fillColor=none;align=left;verticalAlign=top;spacingLeft=4;spacingRight=4;overflow=hidden;rotatable=0;points=[[0,0.5],[1,0.5]];portConstraint=eastwest;" vertex="1" parent="w13ybTUpAUzulzF94Kuo-492">
          <mxGeometry y="442" width="340" height="26" as="geometry" />
        </mxCell>
        <mxCell id="w13ybTUpAUzulzF94Kuo-510" value="-createPrezentareCommand: OrganizatorCommands" style="text;strokeColor=none;fillColor=none;align=left;verticalAlign=top;spacingLeft=4;spacingRight=4;overflow=hidden;rotatable=0;points=[[0,0.5],[1,0.5]];portConstraint=eastwest;" vertex="1" parent="w13ybTUpAUzulzF94Kuo-492">
          <mxGeometry y="468" width="340" height="26" as="geometry" />
        </mxCell>
        <mxCell id="w13ybTUpAUzulzF94Kuo-511" value="-updatePrezentareCommand: OrganizatorCommands" style="text;strokeColor=none;fillColor=none;align=left;verticalAlign=top;spacingLeft=4;spacingRight=4;overflow=hidden;rotatable=0;points=[[0,0.5],[1,0.5]];portConstraint=eastwest;" vertex="1" parent="w13ybTUpAUzulzF94Kuo-492">
          <mxGeometry y="494" width="340" height="26" as="geometry" />
        </mxCell>
        <mxCell id="w13ybTUpAUzulzF94Kuo-512" value="-deletePrezentareCommand: OrganizatorCommands" style="text;strokeColor=none;fillColor=none;align=left;verticalAlign=top;spacingLeft=4;spacingRight=4;overflow=hidden;rotatable=0;points=[[0,0.5],[1,0.5]];portConstraint=eastwest;" vertex="1" parent="w13ybTUpAUzulzF94Kuo-492">
          <mxGeometry y="520" width="340" height="26" as="geometry" />
        </mxCell>
        <mxCell id="w13ybTUpAUzulzF94Kuo-513" value="-filterPrezentari: OrganizatorCommands" style="text;strokeColor=none;fillColor=none;align=left;verticalAlign=top;spacingLeft=4;spacingRight=4;overflow=hidden;rotatable=0;points=[[0,0.5],[1,0.5]];portConstraint=eastwest;" vertex="1" parent="w13ybTUpAUzulzF94Kuo-492">
          <mxGeometry y="546" width="340" height="26" as="geometry" />
        </mxCell>
        <mxCell id="w13ybTUpAUzulzF94Kuo-514" value="-saveFile: OrganizatorCommands" style="text;strokeColor=none;fillColor=none;align=left;verticalAlign=top;spacingLeft=4;spacingRight=4;overflow=hidden;rotatable=0;points=[[0,0.5],[1,0.5]];portConstraint=eastwest;" vertex="1" parent="w13ybTUpAUzulzF94Kuo-492">
          <mxGeometry y="572" width="340" height="26" as="geometry" />
        </mxCell>
        <mxCell id="w13ybTUpAUzulzF94Kuo-515" value="" style="line;strokeWidth=1;fillColor=none;align=left;verticalAlign=middle;spacingTop=-1;spacingLeft=3;spacingRight=3;rotatable=0;labelPosition=right;points=[];portConstraint=eastwest;" vertex="1" parent="w13ybTUpAUzulzF94Kuo-492">
          <mxGeometry y="598" width="340" height="8" as="geometry" />
        </mxCell>
        <mxCell id="w13ybTUpAUzulzF94Kuo-516" value="+OrganizatorVM()" style="text;strokeColor=none;fillColor=none;align=left;verticalAlign=top;spacingLeft=4;spacingRight=4;overflow=hidden;rotatable=0;points=[[0,0.5],[1,0.5]];portConstraint=eastwest;" vertex="1" parent="w13ybTUpAUzulzF94Kuo-492">
          <mxGeometry y="606" width="340" height="26" as="geometry" />
        </mxCell>
        <mxCell id="w13ybTUpAUzulzF94Kuo-517" value="+GetParticipantSelectat(): Participant" style="text;strokeColor=none;fillColor=none;align=left;verticalAlign=top;spacingLeft=4;spacingRight=4;overflow=hidden;rotatable=0;points=[[0,0.5],[1,0.5]];portConstraint=eastwest;" vertex="1" parent="w13ybTUpAUzulzF94Kuo-492">
          <mxGeometry y="632" width="340" height="26" as="geometry" />
        </mxCell>
        <mxCell id="w13ybTUpAUzulzF94Kuo-518" value="+SetParticipantSelectat(Participant): void" style="text;strokeColor=none;fillColor=none;align=left;verticalAlign=top;spacingLeft=4;spacingRight=4;overflow=hidden;rotatable=0;points=[[0,0.5],[1,0.5]];portConstraint=eastwest;" vertex="1" parent="w13ybTUpAUzulzF94Kuo-492">
          <mxGeometry y="658" width="340" height="26" as="geometry" />
        </mxCell>
        <mxCell id="w13ybTUpAUzulzF94Kuo-519" value="+GetListaParticipanti(): List&lt;Participant&gt;" style="text;strokeColor=none;fillColor=none;align=left;verticalAlign=top;spacingLeft=4;spacingRight=4;overflow=hidden;rotatable=0;points=[[0,0.5],[1,0.5]];portConstraint=eastwest;" vertex="1" parent="w13ybTUpAUzulzF94Kuo-492">
          <mxGeometry y="684" width="340" height="26" as="geometry" />
        </mxCell>
        <mxCell id="w13ybTUpAUzulzF94Kuo-520" value="+SetListaParticipanti(List&lt;Participant&gt;): void" style="text;strokeColor=none;fillColor=none;align=left;verticalAlign=top;spacingLeft=4;spacingRight=4;overflow=hidden;rotatable=0;points=[[0,0.5],[1,0.5]];portConstraint=eastwest;" vertex="1" parent="w13ybTUpAUzulzF94Kuo-492">
          <mxGeometry y="710" width="340" height="26" as="geometry" />
        </mxCell>
        <mxCell id="w13ybTUpAUzulzF94Kuo-521" value="+GetSectiuneSelectataforParticipanti(): Sectiune" style="text;strokeColor=none;fillColor=none;align=left;verticalAlign=top;spacingLeft=4;spacingRight=4;overflow=hidden;rotatable=0;points=[[0,0.5],[1,0.5]];portConstraint=eastwest;" vertex="1" parent="w13ybTUpAUzulzF94Kuo-492">
          <mxGeometry y="736" width="340" height="26" as="geometry" />
        </mxCell>
        <mxCell id="w13ybTUpAUzulzF94Kuo-522" value="+SetSectiuneSelectataforParticipanti(Sectiune): void" style="text;strokeColor=none;fillColor=none;align=left;verticalAlign=top;spacingLeft=4;spacingRight=4;overflow=hidden;rotatable=0;points=[[0,0.5],[1,0.5]];portConstraint=eastwest;" vertex="1" parent="w13ybTUpAUzulzF94Kuo-492">
          <mxGeometry y="762" width="340" height="26" as="geometry" />
        </mxCell>
        <mxCell id="w13ybTUpAUzulzF94Kuo-523" value="+GetPrezentareSelectata(): Prezentare" style="text;strokeColor=none;fillColor=none;align=left;verticalAlign=top;spacingLeft=4;spacingRight=4;overflow=hidden;rotatable=0;points=[[0,0.5],[1,0.5]];portConstraint=eastwest;" vertex="1" parent="w13ybTUpAUzulzF94Kuo-492">
          <mxGeometry y="788" width="340" height="26" as="geometry" />
        </mxCell>
        <mxCell id="w13ybTUpAUzulzF94Kuo-524" value="+SetPrezentareSelectata(Prezentare): void" style="text;strokeColor=none;fillColor=none;align=left;verticalAlign=top;spacingLeft=4;spacingRight=4;overflow=hidden;rotatable=0;points=[[0,0.5],[1,0.5]];portConstraint=eastwest;" vertex="1" parent="w13ybTUpAUzulzF94Kuo-492">
          <mxGeometry y="814" width="340" height="26" as="geometry" />
        </mxCell>
        <mxCell id="w13ybTUpAUzulzF94Kuo-525" value="+GetListaPrezentari(): List&lt;Prezentare&gt;" style="text;strokeColor=none;fillColor=none;align=left;verticalAlign=top;spacingLeft=4;spacingRight=4;overflow=hidden;rotatable=0;points=[[0,0.5],[1,0.5]];portConstraint=eastwest;" vertex="1" parent="w13ybTUpAUzulzF94Kuo-492">
          <mxGeometry y="840" width="340" height="26" as="geometry" />
        </mxCell>
        <mxCell id="w13ybTUpAUzulzF94Kuo-526" value="+SetListaPrezentari(List&lt;Prezentare&gt;): void" style="text;strokeColor=none;fillColor=none;align=left;verticalAlign=top;spacingLeft=4;spacingRight=4;overflow=hidden;rotatable=0;points=[[0,0.5],[1,0.5]];portConstraint=eastwest;" vertex="1" parent="w13ybTUpAUzulzF94Kuo-492">
          <mxGeometry y="866" width="340" height="26" as="geometry" />
        </mxCell>
        <mxCell id="w13ybTUpAUzulzF94Kuo-527" value="+GetSectiuneSelectataforPrezentari(): Sectiune" style="text;strokeColor=none;fillColor=none;align=left;verticalAlign=top;spacingLeft=4;spacingRight=4;overflow=hidden;rotatable=0;points=[[0,0.5],[1,0.5]];portConstraint=eastwest;" vertex="1" parent="w13ybTUpAUzulzF94Kuo-492">
          <mxGeometry y="892" width="340" height="26" as="geometry" />
        </mxCell>
        <mxCell id="w13ybTUpAUzulzF94Kuo-528" value="+SetSectiuneSelectataforPrezentari(Sectiune): void" style="text;strokeColor=none;fillColor=none;align=left;verticalAlign=top;spacingLeft=4;spacingRight=4;overflow=hidden;rotatable=0;points=[[0,0.5],[1,0.5]];portConstraint=eastwest;" vertex="1" parent="w13ybTUpAUzulzF94Kuo-492">
          <mxGeometry y="918" width="340" height="26" as="geometry" />
        </mxCell>
        <mxCell id="w13ybTUpAUzulzF94Kuo-529" value="+GetListaSectiuni(): List&lt;Sectiune&gt;" style="text;strokeColor=none;fillColor=none;align=left;verticalAlign=top;spacingLeft=4;spacingRight=4;overflow=hidden;rotatable=0;points=[[0,0.5],[1,0.5]];portConstraint=eastwest;" vertex="1" parent="w13ybTUpAUzulzF94Kuo-492">
          <mxGeometry y="944" width="340" height="26" as="geometry" />
        </mxCell>
        <mxCell id="w13ybTUpAUzulzF94Kuo-530" value="+GetFileFormats(): List&lt;String&gt;" style="text;strokeColor=none;fillColor=none;align=left;verticalAlign=top;spacingLeft=4;spacingRight=4;overflow=hidden;rotatable=0;points=[[0,0.5],[1,0.5]];portConstraint=eastwest;" vertex="1" parent="w13ybTUpAUzulzF94Kuo-492">
          <mxGeometry y="970" width="340" height="26" as="geometry" />
        </mxCell>
        <mxCell id="w13ybTUpAUzulzF94Kuo-531" value="+GetSelectedFileFormat(): String" style="text;strokeColor=none;fillColor=none;align=left;verticalAlign=top;spacingLeft=4;spacingRight=4;overflow=hidden;rotatable=0;points=[[0,0.5],[1,0.5]];portConstraint=eastwest;" vertex="1" parent="w13ybTUpAUzulzF94Kuo-492">
          <mxGeometry y="996" width="340" height="26" as="geometry" />
        </mxCell>
        <mxCell id="w13ybTUpAUzulzF94Kuo-532" value="+SetSelectedFileFormat(String): void" style="text;strokeColor=none;fillColor=none;align=left;verticalAlign=top;spacingLeft=4;spacingRight=4;overflow=hidden;rotatable=0;points=[[0,0.5],[1,0.5]];portConstraint=eastwest;" vertex="1" parent="w13ybTUpAUzulzF94Kuo-492">
          <mxGeometry y="1022" width="340" height="26" as="geometry" />
        </mxCell>
        <mxCell id="w13ybTUpAUzulzF94Kuo-533" value="+GetCreateParticipantCommand(): OrganizatorCommands" style="text;strokeColor=none;fillColor=none;align=left;verticalAlign=top;spacingLeft=4;spacingRight=4;overflow=hidden;rotatable=0;points=[[0,0.5],[1,0.5]];portConstraint=eastwest;" vertex="1" parent="w13ybTUpAUzulzF94Kuo-492">
          <mxGeometry y="1048" width="340" height="26" as="geometry" />
        </mxCell>
        <mxCell id="w13ybTUpAUzulzF94Kuo-534" value="+GetUpdateParticipantCommand(): OrganizatorCommands" style="text;strokeColor=none;fillColor=none;align=left;verticalAlign=top;spacingLeft=4;spacingRight=4;overflow=hidden;rotatable=0;points=[[0,0.5],[1,0.5]];portConstraint=eastwest;" vertex="1" parent="w13ybTUpAUzulzF94Kuo-492">
          <mxGeometry y="1074" width="340" height="26" as="geometry" />
        </mxCell>
        <mxCell id="w13ybTUpAUzulzF94Kuo-535" value="+GetDeleteParticipantCommand(): OrganizatorCommands" style="text;strokeColor=none;fillColor=none;align=left;verticalAlign=top;spacingLeft=4;spacingRight=4;overflow=hidden;rotatable=0;points=[[0,0.5],[1,0.5]];portConstraint=eastwest;" vertex="1" parent="w13ybTUpAUzulzF94Kuo-492">
          <mxGeometry y="1100" width="340" height="26" as="geometry" />
        </mxCell>
        <mxCell id="w13ybTUpAUzulzF94Kuo-536" value="+GetFilterParticipanti(): OrganizatorCommands" style="text;strokeColor=none;fillColor=none;align=left;verticalAlign=top;spacingLeft=4;spacingRight=4;overflow=hidden;rotatable=0;points=[[0,0.5],[1,0.5]];portConstraint=eastwest;" vertex="1" parent="w13ybTUpAUzulzF94Kuo-492">
          <mxGeometry y="1126" width="340" height="26" as="geometry" />
        </mxCell>
        <mxCell id="w13ybTUpAUzulzF94Kuo-537" value="+GetAcceptParticipantCommand(): OrganizatorCommands" style="text;strokeColor=none;fillColor=none;align=left;verticalAlign=top;spacingLeft=4;spacingRight=4;overflow=hidden;rotatable=0;points=[[0,0.5],[1,0.5]];portConstraint=eastwest;" vertex="1" parent="w13ybTUpAUzulzF94Kuo-492">
          <mxGeometry y="1152" width="340" height="26" as="geometry" />
        </mxCell>
        <mxCell id="w13ybTUpAUzulzF94Kuo-538" value="+GetRejectParticipantCommand(): OrganizatorCommands" style="text;strokeColor=none;fillColor=none;align=left;verticalAlign=top;spacingLeft=4;spacingRight=4;overflow=hidden;rotatable=0;points=[[0,0.5],[1,0.5]];portConstraint=eastwest;" vertex="1" parent="w13ybTUpAUzulzF94Kuo-492">
          <mxGeometry y="1178" width="340" height="26" as="geometry" />
        </mxCell>
        <mxCell id="w13ybTUpAUzulzF94Kuo-539" value="+GetCreatePrezentareCommand(): OrganizatorCommands" style="text;strokeColor=none;fillColor=none;align=left;verticalAlign=top;spacingLeft=4;spacingRight=4;overflow=hidden;rotatable=0;points=[[0,0.5],[1,0.5]];portConstraint=eastwest;" vertex="1" parent="w13ybTUpAUzulzF94Kuo-492">
          <mxGeometry y="1204" width="340" height="26" as="geometry" />
        </mxCell>
        <mxCell id="w13ybTUpAUzulzF94Kuo-540" value="+GetUpdatePrezentareCommand(): OrganizatorCommands" style="text;strokeColor=none;fillColor=none;align=left;verticalAlign=top;spacingLeft=4;spacingRight=4;overflow=hidden;rotatable=0;points=[[0,0.5],[1,0.5]];portConstraint=eastwest;" vertex="1" parent="w13ybTUpAUzulzF94Kuo-492">
          <mxGeometry y="1230" width="340" height="26" as="geometry" />
        </mxCell>
        <mxCell id="w13ybTUpAUzulzF94Kuo-541" value="+GetDeletePrezentareCommand(): OrganizatorCommands" style="text;strokeColor=none;fillColor=none;align=left;verticalAlign=top;spacingLeft=4;spacingRight=4;overflow=hidden;rotatable=0;points=[[0,0.5],[1,0.5]];portConstraint=eastwest;" vertex="1" parent="w13ybTUpAUzulzF94Kuo-492">
          <mxGeometry y="1256" width="340" height="26" as="geometry" />
        </mxCell>
        <mxCell id="w13ybTUpAUzulzF94Kuo-542" value="+GetFilterPrezentari(): OrganizatorCommands" style="text;strokeColor=none;fillColor=none;align=left;verticalAlign=top;spacingLeft=4;spacingRight=4;overflow=hidden;rotatable=0;points=[[0,0.5],[1,0.5]];portConstraint=eastwest;" vertex="1" parent="w13ybTUpAUzulzF94Kuo-492">
          <mxGeometry y="1282" width="340" height="26" as="geometry" />
        </mxCell>
        <mxCell id="w13ybTUpAUzulzF94Kuo-543" value="+GetSaveFile(): OrganizatorCommands" style="text;strokeColor=none;fillColor=none;align=left;verticalAlign=top;spacingLeft=4;spacingRight=4;overflow=hidden;rotatable=0;points=[[0,0.5],[1,0.5]];portConstraint=eastwest;" vertex="1" parent="w13ybTUpAUzulzF94Kuo-492">
          <mxGeometry y="1308" width="340" height="26" as="geometry" />
        </mxCell>
        <mxCell id="w13ybTUpAUzulzF94Kuo-544" value="+CreateParticipant(): void" style="text;strokeColor=none;fillColor=none;align=left;verticalAlign=top;spacingLeft=4;spacingRight=4;overflow=hidden;rotatable=0;points=[[0,0.5],[1,0.5]];portConstraint=eastwest;" vertex="1" parent="w13ybTUpAUzulzF94Kuo-492">
          <mxGeometry y="1334" width="340" height="26" as="geometry" />
        </mxCell>
        <mxCell id="w13ybTUpAUzulzF94Kuo-545" value="+UpdateParticipant(): void" style="text;strokeColor=none;fillColor=none;align=left;verticalAlign=top;spacingLeft=4;spacingRight=4;overflow=hidden;rotatable=0;points=[[0,0.5],[1,0.5]];portConstraint=eastwest;" vertex="1" parent="w13ybTUpAUzulzF94Kuo-492">
          <mxGeometry y="1360" width="340" height="26" as="geometry" />
        </mxCell>
        <mxCell id="w13ybTUpAUzulzF94Kuo-546" value="+DeleteParticipant(): void" style="text;strokeColor=none;fillColor=none;align=left;verticalAlign=top;spacingLeft=4;spacingRight=4;overflow=hidden;rotatable=0;points=[[0,0.5],[1,0.5]];portConstraint=eastwest;" vertex="1" parent="w13ybTUpAUzulzF94Kuo-492">
          <mxGeometry y="1386" width="340" height="26" as="geometry" />
        </mxCell>
        <mxCell id="w13ybTUpAUzulzF94Kuo-547" value="+SearchParticipanti(): void" style="text;strokeColor=none;fillColor=none;align=left;verticalAlign=top;spacingLeft=4;spacingRight=4;overflow=hidden;rotatable=0;points=[[0,0.5],[1,0.5]];portConstraint=eastwest;" vertex="1" parent="w13ybTUpAUzulzF94Kuo-492">
          <mxGeometry y="1412" width="340" height="26" as="geometry" />
        </mxCell>
        <mxCell id="w13ybTUpAUzulzF94Kuo-548" value="+AcceptParticipant(): void" style="text;strokeColor=none;fillColor=none;align=left;verticalAlign=top;spacingLeft=4;spacingRight=4;overflow=hidden;rotatable=0;points=[[0,0.5],[1,0.5]];portConstraint=eastwest;" vertex="1" parent="w13ybTUpAUzulzF94Kuo-492">
          <mxGeometry y="1438" width="340" height="26" as="geometry" />
        </mxCell>
        <mxCell id="w13ybTUpAUzulzF94Kuo-549" value="+RejectParticipant(): void" style="text;strokeColor=none;fillColor=none;align=left;verticalAlign=top;spacingLeft=4;spacingRight=4;overflow=hidden;rotatable=0;points=[[0,0.5],[1,0.5]];portConstraint=eastwest;" vertex="1" parent="w13ybTUpAUzulzF94Kuo-492">
          <mxGeometry y="1464" width="340" height="26" as="geometry" />
        </mxCell>
        <mxCell id="w13ybTUpAUzulzF94Kuo-550" value="+CreatePrezentare(): void" style="text;strokeColor=none;fillColor=none;align=left;verticalAlign=top;spacingLeft=4;spacingRight=4;overflow=hidden;rotatable=0;points=[[0,0.5],[1,0.5]];portConstraint=eastwest;" vertex="1" parent="w13ybTUpAUzulzF94Kuo-492">
          <mxGeometry y="1490" width="340" height="26" as="geometry" />
        </mxCell>
        <mxCell id="w13ybTUpAUzulzF94Kuo-551" value="+UpdatePrezentare(): void" style="text;strokeColor=none;fillColor=none;align=left;verticalAlign=top;spacingLeft=4;spacingRight=4;overflow=hidden;rotatable=0;points=[[0,0.5],[1,0.5]];portConstraint=eastwest;" vertex="1" parent="w13ybTUpAUzulzF94Kuo-492">
          <mxGeometry y="1516" width="340" height="26" as="geometry" />
        </mxCell>
        <mxCell id="w13ybTUpAUzulzF94Kuo-552" value="+DeletePrezentare(): void" style="text;strokeColor=none;fillColor=none;align=left;verticalAlign=top;spacingLeft=4;spacingRight=4;overflow=hidden;rotatable=0;points=[[0,0.5],[1,0.5]];portConstraint=eastwest;" vertex="1" parent="w13ybTUpAUzulzF94Kuo-492">
          <mxGeometry y="1542" width="340" height="26" as="geometry" />
        </mxCell>
        <mxCell id="w13ybTUpAUzulzF94Kuo-553" value="+SearchPrezentari(): void" style="text;strokeColor=none;fillColor=none;align=left;verticalAlign=top;spacingLeft=4;spacingRight=4;overflow=hidden;rotatable=0;points=[[0,0.5],[1,0.5]];portConstraint=eastwest;" vertex="1" parent="w13ybTUpAUzulzF94Kuo-492">
          <mxGeometry y="1568" width="340" height="26" as="geometry" />
        </mxCell>
        <mxCell id="w13ybTUpAUzulzF94Kuo-554" value="+Save(): void" style="text;strokeColor=none;fillColor=none;align=left;verticalAlign=top;spacingLeft=4;spacingRight=4;overflow=hidden;rotatable=0;points=[[0,0.5],[1,0.5]];portConstraint=eastwest;" vertex="1" parent="w13ybTUpAUzulzF94Kuo-492">
          <mxGeometry y="1594" width="340" height="26" as="geometry" />
        </mxCell>
        <mxCell id="w13ybTUpAUzulzF94Kuo-555" value="+SaveCsv(): void" style="text;strokeColor=none;fillColor=none;align=left;verticalAlign=top;spacingLeft=4;spacingRight=4;overflow=hidden;rotatable=0;points=[[0,0.5],[1,0.5]];portConstraint=eastwest;" vertex="1" parent="w13ybTUpAUzulzF94Kuo-492">
          <mxGeometry y="1620" width="340" height="26" as="geometry" />
        </mxCell>
        <mxCell id="w13ybTUpAUzulzF94Kuo-556" value="+SaveJson(): void" style="text;strokeColor=none;fillColor=none;align=left;verticalAlign=top;spacingLeft=4;spacingRight=4;overflow=hidden;rotatable=0;points=[[0,0.5],[1,0.5]];portConstraint=eastwest;" vertex="1" parent="w13ybTUpAUzulzF94Kuo-492">
          <mxGeometry y="1646" width="340" height="26" as="geometry" />
        </mxCell>
        <mxCell id="w13ybTUpAUzulzF94Kuo-557" value="+SaveXml(): void" style="text;strokeColor=none;fillColor=none;align=left;verticalAlign=top;spacingLeft=4;spacingRight=4;overflow=hidden;rotatable=0;points=[[0,0.5],[1,0.5]];portConstraint=eastwest;" vertex="1" parent="w13ybTUpAUzulzF94Kuo-492">
          <mxGeometry y="1672" width="340" height="26" as="geometry" />
        </mxCell>
        <mxCell id="w13ybTUpAUzulzF94Kuo-558" value="+SaveDoc(): void" style="text;strokeColor=none;fillColor=none;align=left;verticalAlign=top;spacingLeft=4;spacingRight=4;overflow=hidden;rotatable=0;points=[[0,0.5],[1,0.5]];portConstraint=eastwest;" vertex="1" parent="w13ybTUpAUzulzF94Kuo-492">
          <mxGeometry y="1698" width="340" height="26" as="geometry" />
        </mxCell>
        <mxCell id="w13ybTUpAUzulzF94Kuo-559" value="+SendMail(String, String, String, String, String): void" style="text;strokeColor=none;fillColor=none;align=left;verticalAlign=top;spacingLeft=4;spacingRight=4;overflow=hidden;rotatable=0;points=[[0,0.5],[1,0.5]];portConstraint=eastwest;" vertex="1" parent="w13ybTUpAUzulzF94Kuo-492">
          <mxGeometry y="1724" width="340" height="26" as="geometry" />
        </mxCell>
        <mxCell id="w13ybTUpAUzulzF94Kuo-560" value="+clearParticipantFields(): void" style="text;strokeColor=none;fillColor=none;align=left;verticalAlign=top;spacingLeft=4;spacingRight=4;overflow=hidden;rotatable=0;points=[[0,0.5],[1,0.5]];portConstraint=eastwest;" vertex="1" parent="w13ybTUpAUzulzF94Kuo-492">
          <mxGeometry y="1750" width="340" height="26" as="geometry" />
        </mxCell>
        <mxCell id="w13ybTUpAUzulzF94Kuo-561" value="+clearPrezentareFields(): void" style="text;strokeColor=none;fillColor=none;align=left;verticalAlign=top;spacingLeft=4;spacingRight=4;overflow=hidden;rotatable=0;points=[[0,0.5],[1,0.5]];portConstraint=eastwest;" vertex="1" parent="w13ybTUpAUzulzF94Kuo-492">
          <mxGeometry y="1776" width="340" height="26" as="geometry" />
        </mxCell>
        <mxCell id="w13ybTUpAUzulzF94Kuo-563" value="AdminVM" style="swimlane;fontStyle=1;childLayout=stackLayout;horizontal=1;startSize=26;horizontalStack=0;resizeParent=1;resizeParentMax=0;resizeLast=0;collapsible=1;marginBottom=0;fillColor=#f8cecc;strokeColor=#b85450;" vertex="1" collapsed="1" parent="w13ybTUpAUzulzF94Kuo-362">
          <mxGeometry x="149" y="81" width="87" height="26" as="geometry">
            <mxRectangle x="592" y="-1872" width="243" height="632" as="alternateBounds" />
          </mxGeometry>
        </mxCell>
        <mxCell id="w13ybTUpAUzulzF94Kuo-564" value="-utilizatorRepository: UtilizatorRepository" style="text;strokeColor=none;fillColor=none;align=left;verticalAlign=top;spacingLeft=4;spacingRight=4;overflow=hidden;rotatable=0;points=[[0,0.5],[1,0.5]];portConstraint=eastwest;" vertex="1" parent="w13ybTUpAUzulzF94Kuo-563">
          <mxGeometry y="26" width="243" height="26" as="geometry" />
        </mxCell>
        <mxCell id="w13ybTUpAUzulzF94Kuo-565" value="-listaUtilizatori: List&lt;Utilizator&gt;" style="text;strokeColor=none;fillColor=none;align=left;verticalAlign=top;spacingLeft=4;spacingRight=4;overflow=hidden;rotatable=0;points=[[0,0.5],[1,0.5]];portConstraint=eastwest;" vertex="1" parent="w13ybTUpAUzulzF94Kuo-563">
          <mxGeometry y="52" width="243" height="26" as="geometry" />
        </mxCell>
        <mxCell id="w13ybTUpAUzulzF94Kuo-566" value="-utilizatorSelectat: Utilizator" style="text;strokeColor=none;fillColor=none;align=left;verticalAlign=top;spacingLeft=4;spacingRight=4;overflow=hidden;rotatable=0;points=[[0,0.5],[1,0.5]];portConstraint=eastwest;" vertex="1" parent="w13ybTUpAUzulzF94Kuo-563">
          <mxGeometry y="78" width="243" height="26" as="geometry" />
        </mxCell>
        <mxCell id="w13ybTUpAUzulzF94Kuo-567" value="-listaUserType: List&lt;UserType&gt;" style="text;strokeColor=none;fillColor=none;align=left;verticalAlign=top;spacingLeft=4;spacingRight=4;overflow=hidden;rotatable=0;points=[[0,0.5],[1,0.5]];portConstraint=eastwest;" vertex="1" parent="w13ybTUpAUzulzF94Kuo-563">
          <mxGeometry y="104" width="243" height="26" as="geometry" />
        </mxCell>
        <mxCell id="w13ybTUpAUzulzF94Kuo-568" value="-createUtilizator: AdminCommands" style="text;strokeColor=none;fillColor=none;align=left;verticalAlign=top;spacingLeft=4;spacingRight=4;overflow=hidden;rotatable=0;points=[[0,0.5],[1,0.5]];portConstraint=eastwest;" vertex="1" parent="w13ybTUpAUzulzF94Kuo-563">
          <mxGeometry y="130" width="243" height="26" as="geometry" />
        </mxCell>
        <mxCell id="w13ybTUpAUzulzF94Kuo-569" value="-updateUtilizator: AdminCommands" style="text;strokeColor=none;fillColor=none;align=left;verticalAlign=top;spacingLeft=4;spacingRight=4;overflow=hidden;rotatable=0;points=[[0,0.5],[1,0.5]];portConstraint=eastwest;" vertex="1" parent="w13ybTUpAUzulzF94Kuo-563">
          <mxGeometry y="156" width="243" height="26" as="geometry" />
        </mxCell>
        <mxCell id="w13ybTUpAUzulzF94Kuo-570" value="-deleteUtilizator: AdminCommands" style="text;strokeColor=none;fillColor=none;align=left;verticalAlign=top;spacingLeft=4;spacingRight=4;overflow=hidden;rotatable=0;points=[[0,0.5],[1,0.5]];portConstraint=eastwest;" vertex="1" parent="w13ybTUpAUzulzF94Kuo-563">
          <mxGeometry y="182" width="243" height="26" as="geometry" />
        </mxCell>
        <mxCell id="w13ybTUpAUzulzF94Kuo-571" value="-selectUtilizator: AdminCommands" style="text;strokeColor=none;fillColor=none;align=left;verticalAlign=top;spacingLeft=4;spacingRight=4;overflow=hidden;rotatable=0;points=[[0,0.5],[1,0.5]];portConstraint=eastwest;" vertex="1" parent="w13ybTUpAUzulzF94Kuo-563">
          <mxGeometry y="208" width="243" height="26" as="geometry" />
        </mxCell>
        <mxCell id="w13ybTUpAUzulzF94Kuo-572" value="" style="line;strokeWidth=1;fillColor=none;align=left;verticalAlign=middle;spacingTop=-1;spacingLeft=3;spacingRight=3;rotatable=0;labelPosition=right;points=[];portConstraint=eastwest;" vertex="1" parent="w13ybTUpAUzulzF94Kuo-563">
          <mxGeometry y="234" width="243" height="8" as="geometry" />
        </mxCell>
        <mxCell id="w13ybTUpAUzulzF94Kuo-573" value="+AdminVM()" style="text;strokeColor=none;fillColor=none;align=left;verticalAlign=top;spacingLeft=4;spacingRight=4;overflow=hidden;rotatable=0;points=[[0,0.5],[1,0.5]];portConstraint=eastwest;" vertex="1" parent="w13ybTUpAUzulzF94Kuo-563">
          <mxGeometry y="242" width="243" height="26" as="geometry" />
        </mxCell>
        <mxCell id="w13ybTUpAUzulzF94Kuo-574" value="+GetListaUtilizatori(): List&lt;Utilizator&gt;" style="text;strokeColor=none;fillColor=none;align=left;verticalAlign=top;spacingLeft=4;spacingRight=4;overflow=hidden;rotatable=0;points=[[0,0.5],[1,0.5]];portConstraint=eastwest;" vertex="1" parent="w13ybTUpAUzulzF94Kuo-563">
          <mxGeometry y="268" width="243" height="26" as="geometry" />
        </mxCell>
        <mxCell id="w13ybTUpAUzulzF94Kuo-575" value="+SetListaUtilizatori(List&lt;Utilizator&gt;): void" style="text;strokeColor=none;fillColor=none;align=left;verticalAlign=top;spacingLeft=4;spacingRight=4;overflow=hidden;rotatable=0;points=[[0,0.5],[1,0.5]];portConstraint=eastwest;" vertex="1" parent="w13ybTUpAUzulzF94Kuo-563">
          <mxGeometry y="294" width="243" height="26" as="geometry" />
        </mxCell>
        <mxCell id="w13ybTUpAUzulzF94Kuo-576" value="+GetUtilizatorSelectat(): Utilizator" style="text;strokeColor=none;fillColor=none;align=left;verticalAlign=top;spacingLeft=4;spacingRight=4;overflow=hidden;rotatable=0;points=[[0,0.5],[1,0.5]];portConstraint=eastwest;" vertex="1" parent="w13ybTUpAUzulzF94Kuo-563">
          <mxGeometry y="320" width="243" height="26" as="geometry" />
        </mxCell>
        <mxCell id="w13ybTUpAUzulzF94Kuo-577" value="+SetUtilizatorSelectat(Utilizator): void" style="text;strokeColor=none;fillColor=none;align=left;verticalAlign=top;spacingLeft=4;spacingRight=4;overflow=hidden;rotatable=0;points=[[0,0.5],[1,0.5]];portConstraint=eastwest;" vertex="1" parent="w13ybTUpAUzulzF94Kuo-563">
          <mxGeometry y="346" width="243" height="26" as="geometry" />
        </mxCell>
        <mxCell id="w13ybTUpAUzulzF94Kuo-578" value="+GetListaUserType(): List&lt;UserType&gt;" style="text;strokeColor=none;fillColor=none;align=left;verticalAlign=top;spacingLeft=4;spacingRight=4;overflow=hidden;rotatable=0;points=[[0,0.5],[1,0.5]];portConstraint=eastwest;" vertex="1" parent="w13ybTUpAUzulzF94Kuo-563">
          <mxGeometry y="372" width="243" height="26" as="geometry" />
        </mxCell>
        <mxCell id="w13ybTUpAUzulzF94Kuo-579" value="+GetCreateUtilizator(): AdminCommands" style="text;strokeColor=none;fillColor=none;align=left;verticalAlign=top;spacingLeft=4;spacingRight=4;overflow=hidden;rotatable=0;points=[[0,0.5],[1,0.5]];portConstraint=eastwest;" vertex="1" parent="w13ybTUpAUzulzF94Kuo-563">
          <mxGeometry y="398" width="243" height="26" as="geometry" />
        </mxCell>
        <mxCell id="w13ybTUpAUzulzF94Kuo-580" value="+GetUpdateUtilizator(): AdminCommands" style="text;strokeColor=none;fillColor=none;align=left;verticalAlign=top;spacingLeft=4;spacingRight=4;overflow=hidden;rotatable=0;points=[[0,0.5],[1,0.5]];portConstraint=eastwest;" vertex="1" parent="w13ybTUpAUzulzF94Kuo-563">
          <mxGeometry y="424" width="243" height="26" as="geometry" />
        </mxCell>
        <mxCell id="w13ybTUpAUzulzF94Kuo-581" value="+GetDeleteUtilizator(): AdminCommands" style="text;strokeColor=none;fillColor=none;align=left;verticalAlign=top;spacingLeft=4;spacingRight=4;overflow=hidden;rotatable=0;points=[[0,0.5],[1,0.5]];portConstraint=eastwest;" vertex="1" parent="w13ybTUpAUzulzF94Kuo-563">
          <mxGeometry y="450" width="243" height="26" as="geometry" />
        </mxCell>
        <mxCell id="w13ybTUpAUzulzF94Kuo-582" value="+GetSelectUtilizator(): AdminCommands" style="text;strokeColor=none;fillColor=none;align=left;verticalAlign=top;spacingLeft=4;spacingRight=4;overflow=hidden;rotatable=0;points=[[0,0.5],[1,0.5]];portConstraint=eastwest;" vertex="1" parent="w13ybTUpAUzulzF94Kuo-563">
          <mxGeometry y="476" width="243" height="26" as="geometry" />
        </mxCell>
        <mxCell id="w13ybTUpAUzulzF94Kuo-583" value="+Create(): void" style="text;strokeColor=none;fillColor=none;align=left;verticalAlign=top;spacingLeft=4;spacingRight=4;overflow=hidden;rotatable=0;points=[[0,0.5],[1,0.5]];portConstraint=eastwest;" vertex="1" parent="w13ybTUpAUzulzF94Kuo-563">
          <mxGeometry y="502" width="243" height="26" as="geometry" />
        </mxCell>
        <mxCell id="w13ybTUpAUzulzF94Kuo-584" value="+Update(): void" style="text;strokeColor=none;fillColor=none;align=left;verticalAlign=top;spacingLeft=4;spacingRight=4;overflow=hidden;rotatable=0;points=[[0,0.5],[1,0.5]];portConstraint=eastwest;" vertex="1" parent="w13ybTUpAUzulzF94Kuo-563">
          <mxGeometry y="528" width="243" height="26" as="geometry" />
        </mxCell>
        <mxCell id="w13ybTUpAUzulzF94Kuo-585" value="+Delete(): void" style="text;strokeColor=none;fillColor=none;align=left;verticalAlign=top;spacingLeft=4;spacingRight=4;overflow=hidden;rotatable=0;points=[[0,0.5],[1,0.5]];portConstraint=eastwest;" vertex="1" parent="w13ybTUpAUzulzF94Kuo-563">
          <mxGeometry y="554" width="243" height="26" as="geometry" />
        </mxCell>
        <mxCell id="w13ybTUpAUzulzF94Kuo-586" value="+Select(): void" style="text;strokeColor=none;fillColor=none;align=left;verticalAlign=top;spacingLeft=4;spacingRight=4;overflow=hidden;rotatable=0;points=[[0,0.5],[1,0.5]];portConstraint=eastwest;" vertex="1" parent="w13ybTUpAUzulzF94Kuo-563">
          <mxGeometry y="580" width="243" height="26" as="geometry" />
        </mxCell>
        <mxCell id="w13ybTUpAUzulzF94Kuo-587" value="+ClearUtilizatorFields(): void" style="text;strokeColor=none;fillColor=none;align=left;verticalAlign=top;spacingLeft=4;spacingRight=4;overflow=hidden;rotatable=0;points=[[0,0.5],[1,0.5]];portConstraint=eastwest;" vertex="1" parent="w13ybTUpAUzulzF94Kuo-563">
          <mxGeometry y="606" width="243" height="26" as="geometry" />
        </mxCell>
      </root>
    </mxGraphModel>
  </diagram>
</mxfile>
